ISO-10303-21;
HEADER;
/* Generated by software containing ST-Developer
 * from STEP Tools, Inc. (www.steptools.com) 
 */
/* OPTION: using custom renumber hook */

FILE_DESCRIPTION(
/* description */ ('STEP AP242 Edition 2',
'CAx-IF Rec.Pracs.---Representation and Presentation of Product Manufa
cturing Information (PMI)---4.0---2014-10-13',
'CAx-IF Rec.Pracs.---3D Tessellated Geometry---0.4---2014-09-14','2;1',
'CAx-IF Rec.Pracs.---User Defined Attributes---1.5---2016-08-15'),
/* implementation_level */ '2;1');

FILE_NAME(
/* name */ 'Part Studio 1 - Part 1',
/* time_stamp */ '2026-05-23T22:45:58Z',
/* author */ (''),
/* organization */ (''),
/* preprocessor_version */ 'ST-DEVELOPER v20',
/* originating_system */ 'ONSHAPE BY PTC INC, 1.215',
/* authorisation */ '  ');

FILE_SCHEMA (('AP242_MANAGED_MODEL_BASED_3D_ENGINEERING_MIM_LF { 1 0 10303 442 3 1 4 }'));
ENDSEC;

DATA;
#10=SHAPE_REPRESENTATION_RELATIONSHIP('','',#548,#11);
#11=ADVANCED_BREP_SHAPE_REPRESENTATION('',(#546),#1002);
#12=SPHERICAL_SURFACE('',#593,0.001);
#13=SPHERICAL_SURFACE('',#599,0.001);
#14=(
BOUNDED_SURFACE()
B_SPLINE_SURFACE(3,2,((#895,#896,#897),(#898,#899,#900),(#901,#902,#903),
(#904,#905,#906),(#907,#908,#909),(#910,#911,#912),(#913,#914,#915)),
 .UNSPECIFIED.,.F.,.F.,.F.)
B_SPLINE_SURFACE_WITH_KNOTS((4,1,1,1,4),(3,3),(1.5707963267949,1.96349540849362,
2.35619449019234,2.74889357189107,3.14159265358979),(0.,1.),
 .UNSPECIFIED.)
GEOMETRIC_REPRESENTATION_ITEM()
RATIONAL_B_SPLINE_SURFACE(((1.,1.,1.),(1.,0.999999999999712,1.),(1.,0.973464424251689,
1.),(1.,0.869029034406457,1.),(1.,0.746571860829112,1.),(1.,0.707106781188844,
1.),(1.,0.707106781186548,1.)))
REPRESENTATION_ITEM('')
SURFACE()
);
#15=(
BOUNDED_SURFACE()
B_SPLINE_SURFACE(3,2,((#919,#920,#921),(#922,#923,#924),(#925,#926,#927),
(#928,#929,#930),(#931,#932,#933),(#934,#935,#936),(#937,#938,#939)),
 .UNSPECIFIED.,.F.,.F.,.F.)
B_SPLINE_SURFACE_WITH_KNOTS((4,1,1,1,4),(3,3),(1.5707963267949,1.96349540849362,
2.35619449019234,2.74889357189107,3.14159265358979),(0.,1.),
 .UNSPECIFIED.)
GEOMETRIC_REPRESENTATION_ITEM()
RATIONAL_B_SPLINE_SURFACE(((1.,1.,1.),(1.,0.999999999999712,1.),(1.,0.973464424251675,
1.),(1.,0.869029034406508,1.),(1.,0.746571860828924,1.),(1.,0.707106781189251,
1.),(1.,0.707106781186548,1.)))
REPRESENTATION_ITEM('')
SURFACE()
);
#16=(
BOUNDED_SURFACE()
B_SPLINE_SURFACE(3,2,((#955,#956,#957),(#958,#959,#960),(#961,#962,#963),
(#964,#965,#966),(#967,#968,#969),(#970,#971,#972),(#973,#974,#975)),
 .UNSPECIFIED.,.F.,.F.,.F.)
B_SPLINE_SURFACE_WITH_KNOTS((4,1,1,1,4),(3,3),(4.71238898038469,5.10508806208341,
5.49778714378214,5.89048622548086,6.28318530717959),(0.,1.),
 .UNSPECIFIED.)
GEOMETRIC_REPRESENTATION_ITEM()
RATIONAL_B_SPLINE_SURFACE(((1.,1.,1.),(1.,0.999999999999712,1.),(1.,0.97346442425165,
1.),(1.,0.8690290344066,1.),(1.,0.746571860828587,1.),(1.,0.707106781189977,
1.),(1.,0.707106781186547,1.)))
REPRESENTATION_ITEM('')
SURFACE()
);
#17=(
BOUNDED_SURFACE()
B_SPLINE_SURFACE(3,2,((#980,#981,#982),(#983,#984,#985),(#986,#987,#988),
(#989,#990,#991),(#992,#993,#994),(#995,#996,#997),(#998,#999,#1000)),
 .UNSPECIFIED.,.F.,.F.,.F.)
B_SPLINE_SURFACE_WITH_KNOTS((4,1,1,1,4),(3,3),(4.71238898038469,5.10508806208341,
5.49778714378214,5.89048622548086,6.28318530717959),(0.,1.),
 .UNSPECIFIED.)
GEOMETRIC_REPRESENTATION_ITEM()
RATIONAL_B_SPLINE_SURFACE(((1.,1.,1.),(1.,0.999999999999712,1.),(1.,0.973464424251678,
1.),(1.,0.869029034406503,1.),(1.,0.74657186082895,1.),(1.,0.707106781189193,
1.),(1.,0.707106781186548,1.)))
REPRESENTATION_ITEM('')
SURFACE()
);
#18=ELLIPSE('',#574,0.00640312423743285,0.005);
#19=ELLIPSE('',#575,0.00640312423743285,0.005);
#20=ELLIPSE('',#577,0.00640312423743285,0.005);
#21=ELLIPSE('',#578,0.00640312423743285,0.005);
#22=ELLIPSE('',#580,0.00640312423743285,0.005);
#23=ELLIPSE('',#581,0.00640312423743285,0.005);
#24=ELLIPSE('',#583,0.00640312423743285,0.005);
#25=ELLIPSE('',#584,0.00640312423743285,0.005);
#26=ELLIPSE('',#587,0.00141421356237309,0.001);
#27=ELLIPSE('',#604,0.00141421356237309,0.001);
#28=CYLINDRICAL_SURFACE('',#556,0.001700003810008);
#29=CYLINDRICAL_SURFACE('',#573,0.005);
#30=CYLINDRICAL_SURFACE('',#576,0.005);
#31=CYLINDRICAL_SURFACE('',#579,0.005);
#32=CYLINDRICAL_SURFACE('',#582,0.005);
#33=CYLINDRICAL_SURFACE('',#586,0.001);
#34=CYLINDRICAL_SURFACE('',#589,0.001);
#35=CYLINDRICAL_SURFACE('',#591,0.001);
#36=CYLINDRICAL_SURFACE('',#595,0.001);
#37=CYLINDRICAL_SURFACE('',#597,0.001);
#38=CYLINDRICAL_SURFACE('',#601,0.001);
#39=CYLINDRICAL_SURFACE('',#603,0.001);
#40=CYLINDRICAL_SURFACE('',#605,0.001);
#41=CIRCLE('',#552,0.001);
#42=CIRCLE('',#553,0.005);
#43=CIRCLE('',#557,0.001700003810008);
#44=CIRCLE('',#558,0.001700003810008);
#45=CIRCLE('',#560,0.001);
#46=CIRCLE('',#561,0.005);
#47=CIRCLE('',#585,0.001);
#48=CIRCLE('',#588,0.001);
#49=CIRCLE('',#590,0.001);
#50=CIRCLE('',#592,0.001);
#51=CIRCLE('',#594,0.001);
#52=CIRCLE('',#596,0.001);
#53=CIRCLE('',#598,0.001);
#54=CIRCLE('',#600,0.001);
#55=CIRCLE('',#602,0.001);
#56=CIRCLE('',#606,0.001);
#57=ORIENTED_EDGE('',*,*,#203,.T.);
#58=ORIENTED_EDGE('',*,*,#204,.T.);
#59=ORIENTED_EDGE('',*,*,#205,.T.);
#60=ORIENTED_EDGE('',*,*,#206,.T.);
#61=ORIENTED_EDGE('',*,*,#207,.T.);
#62=ORIENTED_EDGE('',*,*,#208,.T.);
#63=ORIENTED_EDGE('',*,*,#206,.F.);
#64=ORIENTED_EDGE('',*,*,#209,.T.);
#65=ORIENTED_EDGE('',*,*,#210,.T.);
#66=ORIENTED_EDGE('',*,*,#211,.F.);
#67=ORIENTED_EDGE('',*,*,#212,.T.);
#68=ORIENTED_EDGE('',*,*,#213,.T.);
#69=ORIENTED_EDGE('',*,*,#214,.T.);
#70=ORIENTED_EDGE('',*,*,#215,.T.);
#71=ORIENTED_EDGE('',*,*,#216,.T.);
#72=ORIENTED_EDGE('',*,*,#217,.F.);
#73=ORIENTED_EDGE('',*,*,#218,.F.);
#74=ORIENTED_EDGE('',*,*,#219,.T.);
#75=ORIENTED_EDGE('',*,*,#211,.T.);
#76=ORIENTED_EDGE('',*,*,#220,.F.);
#77=ORIENTED_EDGE('',*,*,#221,.T.);
#78=ORIENTED_EDGE('',*,*,#222,.T.);
#79=ORIENTED_EDGE('',*,*,#223,.T.);
#80=ORIENTED_EDGE('',*,*,#224,.F.);
#81=ORIENTED_EDGE('',*,*,#225,.T.);
#82=ORIENTED_EDGE('',*,*,#218,.T.);
#83=ORIENTED_EDGE('',*,*,#226,.F.);
#84=ORIENTED_EDGE('',*,*,#227,.T.);
#85=ORIENTED_EDGE('',*,*,#221,.F.);
#86=ORIENTED_EDGE('',*,*,#228,.T.);
#87=ORIENTED_EDGE('',*,*,#229,.T.);
#88=ORIENTED_EDGE('',*,*,#230,.T.);
#89=ORIENTED_EDGE('',*,*,#213,.F.);
#90=ORIENTED_EDGE('',*,*,#231,.F.);
#91=ORIENTED_EDGE('',*,*,#212,.F.);
#92=ORIENTED_EDGE('',*,*,#219,.F.);
#93=ORIENTED_EDGE('',*,*,#225,.F.);
#94=ORIENTED_EDGE('',*,*,#232,.T.);
#95=ORIENTED_EDGE('',*,*,#233,.T.);
#96=ORIENTED_EDGE('',*,*,#234,.T.);
#97=ORIENTED_EDGE('',*,*,#235,.T.);
#98=ORIENTED_EDGE('',*,*,#236,.T.);
#99=ORIENTED_EDGE('',*,*,#237,.T.);
#100=ORIENTED_EDGE('',*,*,#238,.T.);
#101=ORIENTED_EDGE('',*,*,#239,.T.);
#102=ORIENTED_EDGE('',*,*,#240,.T.);
#103=ORIENTED_EDGE('',*,*,#241,.T.);
#104=ORIENTED_EDGE('',*,*,#242,.T.);
#105=ORIENTED_EDGE('',*,*,#243,.T.);
#106=ORIENTED_EDGE('',*,*,#244,.T.);
#107=ORIENTED_EDGE('',*,*,#245,.T.);
#108=ORIENTED_EDGE('',*,*,#246,.T.);
#109=ORIENTED_EDGE('',*,*,#222,.F.);
#110=ORIENTED_EDGE('',*,*,#229,.F.);
#111=ORIENTED_EDGE('',*,*,#247,.T.);
#112=ORIENTED_EDGE('',*,*,#248,.T.);
#113=ORIENTED_EDGE('',*,*,#249,.F.);
#114=ORIENTED_EDGE('',*,*,#230,.F.);
#115=ORIENTED_EDGE('',*,*,#249,.T.);
#116=ORIENTED_EDGE('',*,*,#250,.T.);
#117=ORIENTED_EDGE('',*,*,#251,.F.);
#118=ORIENTED_EDGE('',*,*,#228,.F.);
#119=ORIENTED_EDGE('',*,*,#224,.T.);
#120=ORIENTED_EDGE('',*,*,#252,.T.);
#121=ORIENTED_EDGE('',*,*,#247,.F.);
#122=ORIENTED_EDGE('',*,*,#220,.T.);
#123=ORIENTED_EDGE('',*,*,#210,.F.);
#124=ORIENTED_EDGE('',*,*,#253,.T.);
#125=ORIENTED_EDGE('',*,*,#226,.T.);
#126=ORIENTED_EDGE('',*,*,#217,.T.);
#127=ORIENTED_EDGE('',*,*,#207,.F.);
#128=ORIENTED_EDGE('',*,*,#231,.T.);
#129=ORIENTED_EDGE('',*,*,#254,.T.);
#130=ORIENTED_EDGE('',*,*,#255,.F.);
#131=ORIENTED_EDGE('',*,*,#215,.F.);
#132=ORIENTED_EDGE('',*,*,#256,.T.);
#133=ORIENTED_EDGE('',*,*,#234,.F.);
#134=ORIENTED_EDGE('',*,*,#257,.T.);
#135=ORIENTED_EDGE('',*,*,#233,.F.);
#136=ORIENTED_EDGE('',*,*,#258,.T.);
#137=ORIENTED_EDGE('',*,*,#244,.F.);
#138=ORIENTED_EDGE('',*,*,#227,.F.);
#139=ORIENTED_EDGE('',*,*,#253,.F.);
#140=ORIENTED_EDGE('',*,*,#209,.F.);
#141=ORIENTED_EDGE('',*,*,#205,.F.);
#142=ORIENTED_EDGE('',*,*,#259,.T.);
#143=ORIENTED_EDGE('',*,*,#242,.F.);
#144=ORIENTED_EDGE('',*,*,#260,.T.);
#145=ORIENTED_EDGE('',*,*,#235,.F.);
#146=ORIENTED_EDGE('',*,*,#261,.T.);
#147=ORIENTED_EDGE('',*,*,#238,.F.);
#148=ORIENTED_EDGE('',*,*,#262,.T.);
#149=ORIENTED_EDGE('',*,*,#232,.F.);
#150=ORIENTED_EDGE('',*,*,#263,.T.);
#151=ORIENTED_EDGE('',*,*,#261,.F.);
#152=ORIENTED_EDGE('',*,*,#256,.F.);
#153=ORIENTED_EDGE('',*,*,#264,.F.);
#154=ORIENTED_EDGE('',*,*,#214,.F.);
#155=ORIENTED_EDGE('',*,*,#251,.T.);
#156=ORIENTED_EDGE('',*,*,#265,.F.);
#157=ORIENTED_EDGE('',*,*,#243,.F.);
#158=ORIENTED_EDGE('',*,*,#264,.T.);
#159=ORIENTED_EDGE('',*,*,#263,.F.);
#160=ORIENTED_EDGE('',*,*,#260,.F.);
#161=ORIENTED_EDGE('',*,*,#266,.F.);
#162=ORIENTED_EDGE('',*,*,#265,.T.);
#163=ORIENTED_EDGE('',*,*,#250,.F.);
#164=ORIENTED_EDGE('',*,*,#267,.F.);
#165=ORIENTED_EDGE('',*,*,#240,.F.);
#166=ORIENTED_EDGE('',*,*,#266,.T.);
#167=ORIENTED_EDGE('',*,*,#241,.F.);
#168=ORIENTED_EDGE('',*,*,#268,.F.);
#169=ORIENTED_EDGE('',*,*,#239,.F.);
#170=ORIENTED_EDGE('',*,*,#268,.T.);
#171=ORIENTED_EDGE('',*,*,#267,.T.);
#172=ORIENTED_EDGE('',*,*,#269,.F.);
#173=ORIENTED_EDGE('',*,*,#223,.F.);
#174=ORIENTED_EDGE('',*,*,#246,.F.);
#175=ORIENTED_EDGE('',*,*,#270,.F.);
#176=ORIENTED_EDGE('',*,*,#252,.F.);
#177=ORIENTED_EDGE('',*,*,#269,.T.);
#178=ORIENTED_EDGE('',*,*,#248,.F.);
#179=ORIENTED_EDGE('',*,*,#271,.F.);
#180=ORIENTED_EDGE('',*,*,#236,.F.);
#181=ORIENTED_EDGE('',*,*,#271,.T.);
#182=ORIENTED_EDGE('',*,*,#270,.T.);
#183=ORIENTED_EDGE('',*,*,#272,.F.);
#184=ORIENTED_EDGE('',*,*,#272,.T.);
#185=ORIENTED_EDGE('',*,*,#245,.F.);
#186=ORIENTED_EDGE('',*,*,#273,.F.);
#187=ORIENTED_EDGE('',*,*,#237,.F.);
#188=ORIENTED_EDGE('',*,*,#273,.T.);
#189=ORIENTED_EDGE('',*,*,#258,.F.);
#190=ORIENTED_EDGE('',*,*,#262,.F.);
#191=ORIENTED_EDGE('',*,*,#208,.F.);
#192=ORIENTED_EDGE('',*,*,#255,.T.);
#193=ORIENTED_EDGE('',*,*,#274,.F.);
#194=ORIENTED_EDGE('',*,*,#203,.F.);
#195=ORIENTED_EDGE('',*,*,#254,.F.);
#196=ORIENTED_EDGE('',*,*,#216,.F.);
#197=ORIENTED_EDGE('',*,*,#275,.F.);
#198=ORIENTED_EDGE('',*,*,#204,.F.);
#199=ORIENTED_EDGE('',*,*,#274,.T.);
#200=ORIENTED_EDGE('',*,*,#275,.T.);
#201=ORIENTED_EDGE('',*,*,#257,.F.);
#202=ORIENTED_EDGE('',*,*,#259,.F.);
#203=EDGE_CURVE('',#276,#277,#318,.F.);
#204=EDGE_CURVE('',#277,#278,#319,.F.);
#205=EDGE_CURVE('',#278,#279,#320,.T.);
#206=EDGE_CURVE('',#279,#276,#321,.T.);
#207=EDGE_CURVE('',#280,#281,#322,.T.);
#208=EDGE_CURVE('',#281,#276,#41,.T.);
#209=EDGE_CURVE('',#279,#282,#42,.T.);
#210=EDGE_CURVE('',#282,#283,#323,.T.);
#211=EDGE_CURVE('',#284,#283,#324,.T.);
#212=EDGE_CURVE('',#284,#280,#325,.T.);
#213=EDGE_CURVE('',#285,#286,#326,.T.);
#214=EDGE_CURVE('',#286,#287,#327,.F.);
#215=EDGE_CURVE('',#287,#288,#328,.F.);
#216=EDGE_CURVE('',#288,#285,#329,.T.);
#217=EDGE_CURVE('',#289,#283,#330,.T.);
#218=EDGE_CURVE('',#290,#289,#331,.T.);
#219=EDGE_CURVE('',#290,#284,#332,.T.);
#220=EDGE_CURVE('',#291,#291,#43,.T.);
#221=EDGE_CURVE('',#292,#292,#44,.T.);
#222=EDGE_CURVE('',#293,#294,#333,.T.);
#223=EDGE_CURVE('',#294,#295,#45,.T.);
#224=EDGE_CURVE('',#296,#295,#334,.T.);
#225=EDGE_CURVE('',#296,#290,#335,.T.);
#226=EDGE_CURVE('',#297,#289,#336,.T.);
#227=EDGE_CURVE('',#297,#293,#46,.T.);
#228=EDGE_CURVE('',#296,#298,#337,.T.);
#229=EDGE_CURVE('',#298,#299,#338,.T.);
#230=EDGE_CURVE('',#299,#286,#339,.T.);
#231=EDGE_CURVE('',#280,#285,#340,.T.);
#232=EDGE_CURVE('',#300,#301,#341,.F.);
#233=EDGE_CURVE('',#301,#302,#342,.F.);
#234=EDGE_CURVE('',#302,#303,#343,.T.);
#235=EDGE_CURVE('',#303,#300,#344,.F.);
#236=EDGE_CURVE('',#304,#305,#345,.T.);
#237=EDGE_CURVE('',#305,#306,#346,.F.);
#238=EDGE_CURVE('',#306,#307,#347,.T.);
#239=EDGE_CURVE('',#307,#304,#348,.T.);
#240=EDGE_CURVE('',#308,#309,#349,.T.);
#241=EDGE_CURVE('',#309,#310,#350,.F.);
#242=EDGE_CURVE('',#310,#311,#351,.T.);
#243=EDGE_CURVE('',#311,#308,#352,.T.);
#244=EDGE_CURVE('',#293,#312,#353,.T.);
#245=EDGE_CURVE('',#312,#313,#354,.T.);
#246=EDGE_CURVE('',#313,#294,#355,.T.);
#247=EDGE_CURVE('',#298,#314,#356,.T.);
#248=EDGE_CURVE('',#314,#315,#357,.T.);
#249=EDGE_CURVE('',#299,#315,#358,.T.);
#250=EDGE_CURVE('',#315,#316,#359,.T.);
#251=EDGE_CURVE('',#286,#316,#360,.T.);
#252=EDGE_CURVE('',#295,#314,#361,.T.);
#253=EDGE_CURVE('',#282,#297,#362,.F.);
#254=EDGE_CURVE('',#285,#317,#363,.T.);
#255=EDGE_CURVE('',#281,#317,#364,.T.);
#256=EDGE_CURVE('',#287,#303,#18,.T.);
#257=EDGE_CURVE('',#302,#288,#19,.F.);
#258=EDGE_CURVE('',#301,#312,#20,.F.);
#259=EDGE_CURVE('',#278,#302,#21,.T.);
#260=EDGE_CURVE('',#310,#300,#22,.T.);
#261=EDGE_CURVE('',#303,#311,#23,.F.);
#262=EDGE_CURVE('',#306,#301,#24,.T.);
#263=EDGE_CURVE('',#300,#307,#25,.F.);
#264=EDGE_CURVE('',#311,#287,#47,.T.);
#265=EDGE_CURVE('',#308,#316,#26,.T.);
#266=EDGE_CURVE('',#307,#310,#48,.T.);
#267=EDGE_CURVE('',#309,#315,#49,.T.);
#268=EDGE_CURVE('',#304,#309,#50,.T.);
#269=EDGE_CURVE('',#304,#315,#51,.F.);
#270=EDGE_CURVE('',#314,#313,#52,.T.);
#271=EDGE_CURVE('',#305,#314,#53,.T.);
#272=EDGE_CURVE('',#305,#313,#54,.F.);
#273=EDGE_CURVE('',#306,#312,#55,.T.);
#274=EDGE_CURVE('',#277,#317,#27,.F.);
#275=EDGE_CURVE('',#278,#288,#56,.T.);
#276=VERTEX_POINT('',#773);
#277=VERTEX_POINT('',#774);
#278=VERTEX_POINT('',#776);
#279=VERTEX_POINT('',#778);
#280=VERTEX_POINT('',#782);
#281=VERTEX_POINT('',#783);
#282=VERTEX_POINT('',#786);
#283=VERTEX_POINT('',#788);
#284=VERTEX_POINT('',#790);
#285=VERTEX_POINT('',#794);
#286=VERTEX_POINT('',#795);
#287=VERTEX_POINT('',#797);
#288=VERTEX_POINT('',#799);
#289=VERTEX_POINT('',#803);
#290=VERTEX_POINT('',#805);
#291=VERTEX_POINT('',#809);
#292=VERTEX_POINT('',#811);
#293=VERTEX_POINT('',#814);
#294=VERTEX_POINT('',#815);
#295=VERTEX_POINT('',#817);
#296=VERTEX_POINT('',#819);
#297=VERTEX_POINT('',#822);
#298=VERTEX_POINT('',#826);
#299=VERTEX_POINT('',#828);
#300=VERTEX_POINT('',#833);
#301=VERTEX_POINT('',#834);
#302=VERTEX_POINT('',#836);
#303=VERTEX_POINT('',#838);
#304=VERTEX_POINT('',#842);
#305=VERTEX_POINT('',#843);
#306=VERTEX_POINT('',#845);
#307=VERTEX_POINT('',#847);
#308=VERTEX_POINT('',#851);
#309=VERTEX_POINT('',#852);
#310=VERTEX_POINT('',#854);
#311=VERTEX_POINT('',#856);
#312=VERTEX_POINT('',#860);
#313=VERTEX_POINT('',#862);
#314=VERTEX_POINT('',#866);
#315=VERTEX_POINT('',#868);
#316=VERTEX_POINT('',#872);
#317=VERTEX_POINT('',#881);
#318=LINE('',#772,#365);
#319=LINE('',#775,#366);
#320=LINE('',#777,#367);
#321=LINE('',#779,#368);
#322=LINE('',#781,#369);
#323=LINE('',#787,#370);
#324=LINE('',#789,#371);
#325=LINE('',#791,#372);
#326=LINE('',#793,#373);
#327=LINE('',#796,#374);
#328=LINE('',#798,#375);
#329=LINE('',#800,#376);
#330=LINE('',#802,#377);
#331=LINE('',#804,#378);
#332=LINE('',#806,#379);
#333=LINE('',#813,#380);
#334=LINE('',#818,#381);
#335=LINE('',#820,#382);
#336=LINE('',#821,#383);
#337=LINE('',#825,#384);
#338=LINE('',#827,#385);
#339=LINE('',#829,#386);
#340=LINE('',#830,#387);
#341=LINE('',#832,#388);
#342=LINE('',#835,#389);
#343=LINE('',#837,#390);
#344=LINE('',#839,#391);
#345=LINE('',#841,#392);
#346=LINE('',#844,#393);
#347=LINE('',#846,#394);
#348=LINE('',#848,#395);
#349=LINE('',#850,#396);
#350=LINE('',#853,#397);
#351=LINE('',#855,#398);
#352=LINE('',#857,#399);
#353=LINE('',#859,#400);
#354=LINE('',#861,#401);
#355=LINE('',#863,#402);
#356=LINE('',#865,#403);
#357=LINE('',#867,#404);
#358=LINE('',#869,#405);
#359=LINE('',#871,#406);
#360=LINE('',#873,#407);
#361=LINE('',#875,#408);
#362=LINE('',#878,#409);
#363=LINE('',#880,#410);
#364=LINE('',#882,#411);
#365=VECTOR('',#611,1.);
#366=VECTOR('',#612,1.);
#367=VECTOR('',#613,1.);
#368=VECTOR('',#614,1.);
#369=VECTOR('',#617,1.);
#370=VECTOR('',#622,1.);
#371=VECTOR('',#623,1.);
#372=VECTOR('',#624,1.);
#373=VECTOR('',#627,1.);
#374=VECTOR('',#628,1.);
#375=VECTOR('',#629,1.);
#376=VECTOR('',#630,1.);
#377=VECTOR('',#633,1.);
#378=VECTOR('',#634,1.);
#379=VECTOR('',#635,1.);
#380=VECTOR('',#644,1.);
#381=VECTOR('',#647,1.);
#382=VECTOR('',#648,1.);
#383=VECTOR('',#649,1.);
#384=VECTOR('',#654,1.);
#385=VECTOR('',#655,1.);
#386=VECTOR('',#656,1.);
#387=VECTOR('',#657,1.);
#388=VECTOR('',#660,1.);
#389=VECTOR('',#661,1.);
#390=VECTOR('',#662,1.);
#391=VECTOR('',#663,1.);
#392=VECTOR('',#666,1.);
#393=VECTOR('',#667,1.);
#394=VECTOR('',#668,1.);
#395=VECTOR('',#669,1.);
#396=VECTOR('',#672,1.);
#397=VECTOR('',#673,1.);
#398=VECTOR('',#674,1.);
#399=VECTOR('',#675,1.);
#400=VECTOR('',#678,1.);
#401=VECTOR('',#679,1.);
#402=VECTOR('',#680,1.);
#403=VECTOR('',#683,1.);
#404=VECTOR('',#684,1.);
#405=VECTOR('',#685,1.);
#406=VECTOR('',#688,1.);
#407=VECTOR('',#689,1.);
#408=VECTOR('',#692,1.);
#409=VECTOR('',#697,1.);
#410=VECTOR('',#700,1.);
#411=VECTOR('',#701,1.);
#412=EDGE_LOOP('',(#57,#58,#59,#60));
#413=EDGE_LOOP('',(#61,#62,#63,#64,#65,#66,#67));
#414=EDGE_LOOP('',(#68,#69,#70,#71));
#415=EDGE_LOOP('',(#72,#73,#74,#75));
#416=EDGE_LOOP('',(#76));
#417=EDGE_LOOP('',(#77));
#418=EDGE_LOOP('',(#78,#79,#80,#81,#82,#83,#84));
#419=EDGE_LOOP('',(#85));
#420=EDGE_LOOP('',(#86,#87,#88,#89,#90,#91,#92,#93));
#421=EDGE_LOOP('',(#94,#95,#96,#97));
#422=EDGE_LOOP('',(#98,#99,#100,#101));
#423=EDGE_LOOP('',(#102,#103,#104,#105));
#424=EDGE_LOOP('',(#106,#107,#108,#109));
#425=EDGE_LOOP('',(#110,#111,#112,#113));
#426=EDGE_LOOP('',(#114,#115,#116,#117));
#427=EDGE_LOOP('',(#118,#119,#120,#121));
#428=EDGE_LOOP('',(#122));
#429=EDGE_LOOP('',(#123,#124,#125,#126));
#430=EDGE_LOOP('',(#127,#128,#129,#130));
#431=EDGE_LOOP('',(#131,#132,#133,#134));
#432=EDGE_LOOP('',(#135,#136,#137,#138,#139,#140,#141,#142));
#433=EDGE_LOOP('',(#143,#144,#145,#146));
#434=EDGE_LOOP('',(#147,#148,#149,#150));
#435=EDGE_LOOP('',(#151,#152,#153));
#436=EDGE_LOOP('',(#154,#155,#156,#157,#158));
#437=EDGE_LOOP('',(#159,#160,#161));
#438=EDGE_LOOP('',(#162,#163,#164,#165));
#439=EDGE_LOOP('',(#166,#167,#168,#169));
#440=EDGE_LOOP('',(#170,#171,#172));
#441=EDGE_LOOP('',(#173,#174,#175,#176));
#442=EDGE_LOOP('',(#177,#178,#179,#180));
#443=EDGE_LOOP('',(#181,#182,#183));
#444=EDGE_LOOP('',(#184,#185,#186,#187));
#445=EDGE_LOOP('',(#188,#189,#190));
#446=EDGE_LOOP('',(#191,#192,#193,#194));
#447=EDGE_LOOP('',(#195,#196,#197,#198,#199));
#448=EDGE_LOOP('',(#200,#201,#202));
#449=FACE_BOUND('',#412,.T.);
#450=FACE_BOUND('',#413,.T.);
#451=FACE_BOUND('',#414,.T.);
#452=FACE_BOUND('',#415,.T.);
#453=FACE_BOUND('',#416,.T.);
#454=FACE_BOUND('',#417,.T.);
#455=FACE_BOUND('',#418,.T.);
#456=FACE_BOUND('',#419,.T.);
#457=FACE_BOUND('',#420,.T.);
#458=FACE_BOUND('',#421,.T.);
#459=FACE_BOUND('',#422,.T.);
#460=FACE_BOUND('',#423,.T.);
#461=FACE_BOUND('',#424,.T.);
#462=FACE_BOUND('',#425,.T.);
#463=FACE_BOUND('',#426,.T.);
#464=FACE_BOUND('',#427,.T.);
#465=FACE_BOUND('',#428,.T.);
#466=FACE_BOUND('',#429,.T.);
#467=FACE_BOUND('',#430,.T.);
#468=FACE_BOUND('',#431,.T.);
#469=FACE_BOUND('',#432,.T.);
#470=FACE_BOUND('',#433,.T.);
#471=FACE_BOUND('',#434,.T.);
#472=FACE_BOUND('',#435,.T.);
#473=FACE_BOUND('',#436,.T.);
#474=FACE_BOUND('',#437,.T.);
#475=FACE_BOUND('',#438,.T.);
#476=FACE_BOUND('',#439,.T.);
#477=FACE_BOUND('',#440,.T.);
#478=FACE_BOUND('',#441,.T.);
#479=FACE_BOUND('',#442,.T.);
#480=FACE_BOUND('',#443,.T.);
#481=FACE_BOUND('',#444,.T.);
#482=FACE_BOUND('',#445,.T.);
#483=FACE_BOUND('',#446,.T.);
#484=FACE_BOUND('',#447,.T.);
#485=FACE_BOUND('',#448,.T.);
#486=PLANE('',#550);
#487=PLANE('',#551);
#488=PLANE('',#554);
#489=PLANE('',#555);
#490=PLANE('',#559);
#491=PLANE('',#562);
#492=PLANE('',#563);
#493=PLANE('',#564);
#494=PLANE('',#565);
#495=PLANE('',#566);
#496=PLANE('',#567);
#497=PLANE('',#568);
#498=PLANE('',#569);
#499=PLANE('',#570);
#500=PLANE('',#571);
#501=PLANE('',#572);
#502=ADVANCED_FACE('',(#449),#486,.T.);
#503=ADVANCED_FACE('',(#450),#487,.T.);
#504=ADVANCED_FACE('',(#451),#488,.T.);
#505=ADVANCED_FACE('',(#452),#489,.T.);
#506=ADVANCED_FACE('',(#453,#454),#28,.F.);
#507=ADVANCED_FACE('',(#455),#490,.T.);
#508=ADVANCED_FACE('',(#456,#457),#491,.T.);
#509=ADVANCED_FACE('',(#458),#492,.F.);
#510=ADVANCED_FACE('',(#459),#493,.T.);
#511=ADVANCED_FACE('',(#460),#494,.T.);
#512=ADVANCED_FACE('',(#461),#495,.T.);
#513=ADVANCED_FACE('',(#462),#496,.F.);
#514=ADVANCED_FACE('',(#463),#497,.F.);
#515=ADVANCED_FACE('',(#464),#498,.F.);
#516=ADVANCED_FACE('',(#465),#499,.T.);
#517=ADVANCED_FACE('',(#466),#500,.F.);
#518=ADVANCED_FACE('',(#467),#501,.T.);
#519=ADVANCED_FACE('',(#468),#29,.T.);
#520=ADVANCED_FACE('',(#469),#30,.T.);
#521=ADVANCED_FACE('',(#470),#31,.T.);
#522=ADVANCED_FACE('',(#471),#32,.T.);
#523=ADVANCED_FACE('',(#472),#14,.T.);
#524=ADVANCED_FACE('',(#473),#33,.T.);
#525=ADVANCED_FACE('',(#474),#15,.T.);
#526=ADVANCED_FACE('',(#475),#34,.T.);
#527=ADVANCED_FACE('',(#476),#35,.T.);
#528=ADVANCED_FACE('',(#477),#12,.T.);
#529=ADVANCED_FACE('',(#478),#36,.T.);
#530=ADVANCED_FACE('',(#479),#37,.T.);
#531=ADVANCED_FACE('',(#480),#13,.T.);
#532=ADVANCED_FACE('',(#481),#38,.T.);
#533=ADVANCED_FACE('',(#482),#16,.T.);
#534=ADVANCED_FACE('',(#483),#39,.T.);
#535=ADVANCED_FACE('',(#484),#40,.T.);
#536=ADVANCED_FACE('',(#485),#17,.T.);
#537=CLOSED_SHELL('',(#502,#503,#504,#505,#506,#507,#508,#509,#510,#511,
#512,#513,#514,#515,#516,#517,#518,#519,#520,#521,#522,#523,#524,#525,#526,
#527,#528,#529,#530,#531,#532,#533,#534,#535,#536));
#538=STYLED_ITEM('',(#539),#546);
#539=PRESENTATION_STYLE_ASSIGNMENT((#540));
#540=SURFACE_STYLE_USAGE(.BOTH.,#541);
#541=SURFACE_SIDE_STYLE('',(#542));
#542=SURFACE_STYLE_FILL_AREA(#543);
#543=FILL_AREA_STYLE('',(#544));
#544=FILL_AREA_STYLE_COLOUR('',#545);
#545=COLOUR_RGB('',0.972549019607843,0.529411764705882,0.00392156862745098);
#546=MANIFOLD_SOLID_BREP('Part 1',#537);
#547=SHAPE_DEFINITION_REPRESENTATION(#1007,#548);
#548=SHAPE_REPRESENTATION('Part 1',(#549),#1002);
#549=AXIS2_PLACEMENT_3D('',#770,#607,#608);
#550=AXIS2_PLACEMENT_3D('',#771,#609,#610);
#551=AXIS2_PLACEMENT_3D('',#780,#615,#616);
#552=AXIS2_PLACEMENT_3D('',#784,#618,#619);
#553=AXIS2_PLACEMENT_3D('',#785,#620,#621);
#554=AXIS2_PLACEMENT_3D('',#792,#625,#626);
#555=AXIS2_PLACEMENT_3D('',#801,#631,#632);
#556=AXIS2_PLACEMENT_3D('',#807,#636,#637);
#557=AXIS2_PLACEMENT_3D('',#808,#638,#639);
#558=AXIS2_PLACEMENT_3D('',#810,#640,#641);
#559=AXIS2_PLACEMENT_3D('',#812,#642,#643);
#560=AXIS2_PLACEMENT_3D('',#816,#645,#646);
#561=AXIS2_PLACEMENT_3D('',#823,#650,#651);
#562=AXIS2_PLACEMENT_3D('',#824,#652,#653);
#563=AXIS2_PLACEMENT_3D('',#831,#658,#659);
#564=AXIS2_PLACEMENT_3D('',#840,#664,#665);
#565=AXIS2_PLACEMENT_3D('',#849,#670,#671);
#566=AXIS2_PLACEMENT_3D('',#858,#676,#677);
#567=AXIS2_PLACEMENT_3D('',#864,#681,#682);
#568=AXIS2_PLACEMENT_3D('',#870,#686,#687);
#569=AXIS2_PLACEMENT_3D('',#874,#690,#691);
#570=AXIS2_PLACEMENT_3D('',#876,#693,#694);
#571=AXIS2_PLACEMENT_3D('',#877,#695,#696);
#572=AXIS2_PLACEMENT_3D('',#879,#698,#699);
#573=AXIS2_PLACEMENT_3D('',#883,#702,#703);
#574=AXIS2_PLACEMENT_3D('',#884,#704,#705);
#575=AXIS2_PLACEMENT_3D('',#885,#706,#707);
#576=AXIS2_PLACEMENT_3D('',#886,#708,#709);
#577=AXIS2_PLACEMENT_3D('',#887,#710,#711);
#578=AXIS2_PLACEMENT_3D('',#888,#712,#713);
#579=AXIS2_PLACEMENT_3D('',#889,#714,#715);
#580=AXIS2_PLACEMENT_3D('',#890,#716,#717);
#581=AXIS2_PLACEMENT_3D('',#891,#718,#719);
#582=AXIS2_PLACEMENT_3D('',#892,#720,#721);
#583=AXIS2_PLACEMENT_3D('',#893,#722,#723);
#584=AXIS2_PLACEMENT_3D('',#894,#724,#725);
#585=AXIS2_PLACEMENT_3D('',#916,#726,#727);
#586=AXIS2_PLACEMENT_3D('',#917,#728,#729);
#587=AXIS2_PLACEMENT_3D('',#918,#730,#731);
#588=AXIS2_PLACEMENT_3D('',#940,#732,#733);
#589=AXIS2_PLACEMENT_3D('',#941,#734,#735);
#590=AXIS2_PLACEMENT_3D('',#942,#736,#737);
#591=AXIS2_PLACEMENT_3D('',#943,#738,#739);
#592=AXIS2_PLACEMENT_3D('',#944,#740,#741);
#593=AXIS2_PLACEMENT_3D('',#945,#742,#743);
#594=AXIS2_PLACEMENT_3D('',#946,#744,#745);
#595=AXIS2_PLACEMENT_3D('',#947,#746,#747);
#596=AXIS2_PLACEMENT_3D('',#948,#748,#749);
#597=AXIS2_PLACEMENT_3D('',#949,#750,#751);
#598=AXIS2_PLACEMENT_3D('',#950,#752,#753);
#599=AXIS2_PLACEMENT_3D('',#951,#754,#755);
#600=AXIS2_PLACEMENT_3D('',#952,#756,#757);
#601=AXIS2_PLACEMENT_3D('',#953,#758,#759);
#602=AXIS2_PLACEMENT_3D('',#954,#760,#761);
#603=AXIS2_PLACEMENT_3D('',#976,#762,#763);
#604=AXIS2_PLACEMENT_3D('',#977,#764,#765);
#605=AXIS2_PLACEMENT_3D('',#978,#766,#767);
#606=AXIS2_PLACEMENT_3D('',#979,#768,#769);
#607=DIRECTION('',(0.,0.,1.));
#608=DIRECTION('',(1.,0.,0.));
#609=DIRECTION('',(-3.06161699786839E-16,1.,0.));
#610=DIRECTION('',(-1.,-3.06161699786839E-16,0.));
#611=DIRECTION('',(-1.,-3.06161699786839E-16,0.));
#612=DIRECTION('',(0.,0.,1.));
#613=DIRECTION('',(-1.,-3.06161699786839E-16,0.));
#614=DIRECTION('',(0.,0.,1.));
#615=DIRECTION('',(-1.,-3.21937575139042E-16,0.));
#616=DIRECTION('',(3.21937575139042E-16,-1.,0.));
#617=DIRECTION('',(0.,0.,1.));
#618=DIRECTION('',(-1.,-3.21937575139042E-16,0.));
#619=DIRECTION('',(3.21937575139042E-16,-1.,0.));
#620=DIRECTION('',(-1.,-3.21937575139042E-16,0.));
#621=DIRECTION('',(3.21937575139042E-16,-1.,0.));
#622=DIRECTION('',(2.66880682320872E-16,-1.,0.));
#623=DIRECTION('',(0.,0.,-1.));
#624=DIRECTION('',(-3.21937575139042E-16,1.,0.));
#625=DIRECTION('',(1.,0.,0.));
#626=DIRECTION('',(0.,0.,-1.));
#627=DIRECTION('',(0.,-1.,0.));
#628=DIRECTION('',(0.,0.,1.));
#629=DIRECTION('',(0.,-1.,0.));
#630=DIRECTION('',(0.,0.,1.));
#631=DIRECTION('',(-2.66880682320872E-16,1.,0.));
#632=DIRECTION('',(-1.,-2.66880682320872E-16,0.));
#633=DIRECTION('',(1.,2.66880682320872E-16,-6.67201705802179E-17));
#634=DIRECTION('',(0.,0.,-1.));
#635=DIRECTION('',(1.,2.66880682320872E-16,0.));
#636=DIRECTION('',(0.,0.,-1.));
#637=DIRECTION('',(-1.,0.,0.));
#638=DIRECTION('',(0.,0.,1.));
#639=DIRECTION('',(1.,0.,0.));
#640=DIRECTION('',(0.,0.,1.));
#641=DIRECTION('',(1.,0.,0.));
#642=DIRECTION('',(1.,0.,0.));
#643=DIRECTION('',(0.,0.,-1.));
#644=DIRECTION('',(0.,0.,1.));
#645=DIRECTION('',(1.,0.,0.));
#646=DIRECTION('',(0.,0.,-1.));
#647=DIRECTION('',(0.,0.,1.));
#648=DIRECTION('',(0.,-1.,0.));
#649=DIRECTION('',(2.66880682320872E-16,-1.,0.));
#650=DIRECTION('',(1.,0.,0.));
#651=DIRECTION('',(0.,0.,-1.));
#652=DIRECTION('',(0.,0.,1.));
#653=DIRECTION('',(1.,0.,0.));
#654=DIRECTION('',(-1.,0.,0.));
#655=DIRECTION('',(0.,-1.,0.));
#656=DIRECTION('',(1.,0.,0.));
#657=DIRECTION('',(1.,1.94428295066075E-16,0.));
#658=DIRECTION('',(0.,0.,1.));
#659=DIRECTION('',(1.,0.,0.));
#660=DIRECTION('',(6.12323399573677E-17,-1.,0.));
#661=DIRECTION('',(-1.,-3.06161699786839E-16,0.));
#662=DIRECTION('',(0.,-1.,0.));
#663=DIRECTION('',(1.,0.,0.));
#664=DIRECTION('',(-1.,-6.12323399573677E-17,0.));
#665=DIRECTION('',(6.12323399573677E-17,-1.,0.));
#666=DIRECTION('',(-6.12323399573677E-17,1.,0.));
#667=DIRECTION('',(0.,0.,1.));
#668=DIRECTION('',(6.12323399573677E-17,-1.,0.));
#669=DIRECTION('',(0.,0.,1.));
#670=DIRECTION('',(0.,-1.,0.));
#671=DIRECTION('',(0.,0.,-1.));
#672=DIRECTION('',(-1.,0.,0.));
#673=DIRECTION('',(0.,0.,1.));
#674=DIRECTION('',(1.,0.,0.));
#675=DIRECTION('',(0.,0.,1.));
#676=DIRECTION('',(-3.06161699786839E-16,1.,0.));
#677=DIRECTION('',(-1.,-3.06161699786839E-16,0.));
#678=DIRECTION('',(-1.,-3.06161699786839E-16,0.));
#679=DIRECTION('',(0.,0.,1.));
#680=DIRECTION('',(1.,3.06161699786839E-16,0.));
#681=DIRECTION('',(-1.,-6.12323399573677E-17,0.));
#682=DIRECTION('',(6.12323399573677E-17,-1.,0.));
#683=DIRECTION('',(0.,0.,1.));
#684=DIRECTION('',(6.12323399573677E-17,-1.,0.));
#685=DIRECTION('',(0.,0.,1.));
#686=DIRECTION('',(0.,-1.,0.));
#687=DIRECTION('',(0.,0.,-1.));
#688=DIRECTION('',(1.,0.,0.));
#689=DIRECTION('',(0.,0.,1.));
#690=DIRECTION('',(-3.06161699786839E-16,1.,0.));
#691=DIRECTION('',(-1.,-3.06161699786839E-16,0.));
#692=DIRECTION('',(-1.,-3.06161699786839E-16,0.));
#693=DIRECTION('',(0.,0.,1.));
#694=DIRECTION('',(1.,0.,0.));
#695=DIRECTION('',(-6.67201705802179E-17,-1.78063246490135E-32,-1.));
#696=DIRECTION('',(-1.,0.,6.67201705802179E-17));
#697=DIRECTION('',(1.,3.06161699786839E-16,0.));
#698=DIRECTION('',(1.83697019872103E-16,-1.,0.));
#699=DIRECTION('',(1.,1.83697019872103E-16,0.));
#700=DIRECTION('',(0.,0.,1.));
#701=DIRECTION('',(1.,1.83697019872103E-16,0.));
#702=DIRECTION('',(0.,1.,0.));
#703=DIRECTION('',(0.,0.,1.));
#704=DIRECTION('',(0.624695047554424,0.78086880944303,0.));
#705=DIRECTION('',(-0.78086880944303,0.624695047554424,0.));
#706=DIRECTION('',(-0.624695047554424,0.78086880944303,0.));
#707=DIRECTION('',(0.78086880944303,0.624695047554424,0.));
#708=DIRECTION('',(1.,3.06161699786839E-16,0.));
#709=DIRECTION('',(-3.06161699786839E-16,1.,0.));
#710=DIRECTION('',(-0.78086880944303,-0.624695047554424,0.));
#711=DIRECTION('',(-0.624695047554424,0.78086880944303,0.));
#712=DIRECTION('',(-0.78086880944303,0.624695047554424,0.));
#713=DIRECTION('',(0.624695047554424,0.78086880944303,0.));
#714=DIRECTION('',(-1.,0.,0.));
#715=DIRECTION('',(0.,0.,1.));
#716=DIRECTION('',(0.78086880944303,-0.624695047554424,0.));
#717=DIRECTION('',(0.624695047554424,0.78086880944303,0.));
#718=DIRECTION('',(0.78086880944303,0.624695047554424,0.));
#719=DIRECTION('',(-0.624695047554424,0.78086880944303,0.));
#720=DIRECTION('',(-6.12323399573677E-17,1.,0.));
#721=DIRECTION('',(-1.,-6.12323399573677E-17,0.));
#722=DIRECTION('',(-0.624695047554424,-0.78086880944303,0.));
#723=DIRECTION('',(-0.78086880944303,0.624695047554424,0.));
#724=DIRECTION('',(0.624695047554424,-0.78086880944303,0.));
#725=DIRECTION('',(0.78086880944303,0.624695047554424,0.));
#726=DIRECTION('',(0.,0.,1.));
#727=DIRECTION('',(1.,0.,0.));
#728=DIRECTION('',(0.,0.,1.));
#729=DIRECTION('',(1.,0.,0.));
#730=DIRECTION('',(-0.707106781186548,0.,0.707106781186548));
#731=DIRECTION('',(-0.707106781186548,0.,-0.707106781186548));
#732=DIRECTION('',(0.,0.,1.));
#733=DIRECTION('',(1.,0.,0.));
#734=DIRECTION('',(-1.,0.,0.));
#735=DIRECTION('',(0.,0.,1.));
#736=DIRECTION('',(-1.,0.,1.73472347597681E-15));
#737=DIRECTION('',(1.73472347597681E-15,0.,1.));
#738=DIRECTION('',(0.,0.,1.));
#739=DIRECTION('',(1.,0.,0.));
#740=DIRECTION('',(0.,0.,1.));
#741=DIRECTION('',(1.,0.,0.));
#742=DIRECTION('',(0.,-1.,0.));
#743=DIRECTION('',(0.,0.,-1.));
#744=DIRECTION('',(1.73472347597681E-15,-1.,0.));
#745=DIRECTION('',(1.,1.73472347597681E-15,0.));
#746=DIRECTION('',(1.,3.06161699786839E-16,0.));
#747=DIRECTION('',(-3.06161699786839E-16,1.,0.));
#748=DIRECTION('',(-1.,0.,0.));
#749=DIRECTION('',(0.,0.,1.));
#750=DIRECTION('',(-6.12323399573677E-17,1.,0.));
#751=DIRECTION('',(-1.,-6.12323399573677E-17,0.));
#752=DIRECTION('',(0.,1.,0.));
#753=DIRECTION('',(0.,0.,1.));
#754=DIRECTION('',(0.,0.,1.));
#755=DIRECTION('',(1.,0.,0.));
#756=DIRECTION('',(0.,0.,1.));
#757=DIRECTION('',(1.,0.,0.));
#758=DIRECTION('',(0.,0.,1.));
#759=DIRECTION('',(1.,0.,0.));
#760=DIRECTION('',(0.,0.,-1.));
#761=DIRECTION('',(-1.,0.,0.));
#762=DIRECTION('',(-1.,-3.06161699786839E-16,0.));
#763=DIRECTION('',(3.06161699786839E-16,-1.,0.));
#764=DIRECTION('',(-0.707106781186548,-2.16489014058874E-16,0.707106781186548));
#765=DIRECTION('',(-0.707106781186548,-2.16489014058874E-16,-0.707106781186548));
#766=DIRECTION('',(0.,0.,1.));
#767=DIRECTION('',(1.,0.,0.));
#768=DIRECTION('',(0.,0.,-1.));
#769=DIRECTION('',(-1.,0.,0.));
#770=CARTESIAN_POINT('',(0.,0.,0.));
#771=CARTESIAN_POINT('',(-0.0114808429653493,0.0155048323609082,-0.005));
#772=CARTESIAN_POINT('',(-0.0114808429653493,0.0155048323609082,0.002));
#773=CARTESIAN_POINT('',(0.0025256736476911,0.0155048323609082,0.002));
#774=CARTESIAN_POINT('',(0.0193700257301621,0.0155048323609082,0.002));
#775=CARTESIAN_POINT('',(0.0193700257301621,0.0155048323609082,-0.005));
#776=CARTESIAN_POINT('',(0.0193700257301621,0.0155048323609082,0.));
#777=CARTESIAN_POINT('',(-0.0136976400051699,0.0155048323609082,0.));
#778=CARTESIAN_POINT('',(0.0025256736476911,0.0155048323609082,0.));
#779=CARTESIAN_POINT('',(0.0025256736476911,0.0155048323609082,-0.005));
#780=CARTESIAN_POINT('',(0.0025256736476911,0.0124841881313232,0.001));
#781=CARTESIAN_POINT('',(0.0025256736476911,0.0145048323609082,-0.005));
#782=CARTESIAN_POINT('',(0.0025256736476911,0.0145048323609082,0.001));
#783=CARTESIAN_POINT('',(0.0025256736476911,0.0145048323609082,0.003));
#784=CARTESIAN_POINT('',(0.0025256736476911,0.0145048323609082,0.002));
#785=CARTESIAN_POINT('',(0.0025256736476911,0.0105048323609082,0.));
#786=CARTESIAN_POINT('',(0.0025256736476911,0.0147064813752555,-0.002710377383361));
#787=CARTESIAN_POINT('',(0.0025256736476911,0.0155048339017382,-0.002710377383361));
#788=CARTESIAN_POINT('',(0.0025256736476911,0.0104635439017382,-0.002710377383361));
#789=CARTESIAN_POINT('',(0.0025256736476911,0.0104635439017382,0.001));
#790=CARTESIAN_POINT('',(0.0025256736476911,0.0104635439017382,0.001));
#791=CARTESIAN_POINT('',(0.0025256736476911,0.0124841881313232,0.001));
#792=CARTESIAN_POINT('',(0.0203700257301621,0.00451151257427222,0.001));
#793=CARTESIAN_POINT('',(0.0203700257301621,0.00451151257427222,0.001));
#794=CARTESIAN_POINT('',(0.0203700257301621,0.0145048323609082,0.001));
#795=CARTESIAN_POINT('',(0.0203700257301621,-0.00548180721236378,0.001));
#796=CARTESIAN_POINT('',(0.0203700257301621,-0.00548180721236378,0.001));
#797=CARTESIAN_POINT('',(0.0203700257301621,-0.00548180721236378,0.));
#798=CARTESIAN_POINT('',(0.0203700257301621,0.0155048323609082,0.));
#799=CARTESIAN_POINT('',(0.0203700257301621,0.0145048323609082,0.));
#800=CARTESIAN_POINT('',(0.0203700257301621,0.0145048323609082,0.001));
#801=CARTESIAN_POINT('',(-0.0039743227585349,0.0104635439017382,0.001));
#802=CARTESIAN_POINT('',(-0.0039743227585349,0.0104635439017382,-0.002710377383361));
#803=CARTESIAN_POINT('',(-0.0104743191647609,0.0104635439017382,-0.002710377383361));
#804=CARTESIAN_POINT('',(-0.0104743191647609,0.0104635439017382,0.001));
#805=CARTESIAN_POINT('',(-0.0104743191647609,0.0104635439017382,0.001));
#806=CARTESIAN_POINT('',(-0.0039743227585349,0.0104635439017382,0.001));
#807=CARTESIAN_POINT('',(-0.0094353336805569,0.00641651638427622,0.001));
#808=CARTESIAN_POINT('',(-0.0094353336805569,0.00641651638427622,-0.003));
#809=CARTESIAN_POINT('',(-0.0077353298705489,0.00641651638427622,-0.003));
#810=CARTESIAN_POINT('',(-0.0094353336805569,0.00641651638427622,0.001));
#811=CARTESIAN_POINT('',(-0.0077353298705489,0.00641651638427622,0.001));
#812=CARTESIAN_POINT('',(-0.0104743191647609,0.0124841881313232,0.001));
#813=CARTESIAN_POINT('',(-0.0104743191647609,0.0155048323609082,-0.005));
#814=CARTESIAN_POINT('',(-0.0104743191647609,0.0155048323609082,0.));
#815=CARTESIAN_POINT('',(-0.0104743191647609,0.0155048323609082,0.002));
#816=CARTESIAN_POINT('',(-0.0104743191647609,0.0145048323609082,0.002));
#817=CARTESIAN_POINT('',(-0.0104743191647609,0.0145048323609082,0.003));
#818=CARTESIAN_POINT('',(-0.0104743191647609,0.0145048323609082,-0.005));
#819=CARTESIAN_POINT('',(-0.0104743191647609,0.0145048323609082,0.001));
#820=CARTESIAN_POINT('',(-0.0104743191647609,0.0124841881313232,0.001));
#821=CARTESIAN_POINT('',(-0.0104743191647609,0.0155048339017382,-0.002710377383361));
#822=CARTESIAN_POINT('',(-0.0104743191647609,0.0147064813752555,-0.002710377383361));
#823=CARTESIAN_POINT('',(-0.0104743191647609,0.0105048323609082,0.));
#824=CARTESIAN_POINT('',(0.0038361928624961,0.00479086711681422,0.001));
#825=CARTESIAN_POINT('',(-0.0115859795849654,0.0145048323609082,0.001));
#826=CARTESIAN_POINT('',(-0.0126976400051699,0.0145048323609082,0.001));
#827=CARTESIAN_POINT('',(-0.0126976400051699,0.00451151257427222,0.001));
#828=CARTESIAN_POINT('',(-0.0126976400051699,-0.00548180721236378,0.001));
#829=CARTESIAN_POINT('',(0.0038361928624961,-0.00548180721236378,0.001));
#830=CARTESIAN_POINT('',(0.0114478496889266,0.0145048323609082,0.001));
#831=CARTESIAN_POINT('',(0.0038361928624961,0.00479086711681422,-0.005));
#832=CARTESIAN_POINT('',(-0.0086976400051699,0.0155048323609082,-0.005));
#833=CARTESIAN_POINT('',(-0.0086976400051699,-0.00148180721236378,-0.005));
#834=CARTESIAN_POINT('',(-0.0086976400051699,0.0105048323609082,-0.005));
#835=CARTESIAN_POINT('',(0.0203700257301621,0.0105048323609082,-0.005));
#836=CARTESIAN_POINT('',(0.0153700257301621,0.0105048323609082,-0.005));
#837=CARTESIAN_POINT('',(0.0153700257301621,-0.00648180721236378,-0.005));
#838=CARTESIAN_POINT('',(0.0153700257301621,-0.00148180721236378,-0.005));
#839=CARTESIAN_POINT('',(-0.0136976400051699,-0.00148180721236378,-0.005));
#840=CARTESIAN_POINT('',(-0.0136976400051699,0.00241080344549423,-0.005));
#841=CARTESIAN_POINT('',(-0.0136976400051699,0.00241080344549423,0.002));
#842=CARTESIAN_POINT('',(-0.0136976400051699,-0.00548180721236378,0.002));
#843=CARTESIAN_POINT('',(-0.0136976400051699,0.0145048323609082,0.002));
#844=CARTESIAN_POINT('',(-0.0136976400051699,0.0145048323609082,-0.005));
#845=CARTESIAN_POINT('',(-0.0136976400051699,0.0145048323609082,0.));
#846=CARTESIAN_POINT('',(-0.0136976400051699,-0.00648180721236378,0.));
#847=CARTESIAN_POINT('',(-0.0136976400051699,-0.00548180721236378,0.));
#848=CARTESIAN_POINT('',(-0.0136976400051699,-0.00548180721236378,-0.005));
#849=CARTESIAN_POINT('',(0.00383619073016211,-0.00648180721236378,-0.005));
#850=CARTESIAN_POINT('',(0.00383619073016211,-0.00648180721236378,0.002));
#851=CARTESIAN_POINT('',(0.0193700257301621,-0.00648180721236378,0.002));
#852=CARTESIAN_POINT('',(-0.0126976400051699,-0.00648180721236378,0.002));
#853=CARTESIAN_POINT('',(-0.0126976400051699,-0.00648180721236378,-0.005));
#854=CARTESIAN_POINT('',(-0.0126976400051699,-0.00648180721236378,0.));
#855=CARTESIAN_POINT('',(0.0203700257301621,-0.00648180721236378,0.));
#856=CARTESIAN_POINT('',(0.0193700257301621,-0.00648180721236378,0.));
#857=CARTESIAN_POINT('',(0.0193700257301621,-0.00648180721236378,-0.005));
#858=CARTESIAN_POINT('',(-0.0114808429653493,0.0155048323609082,-0.005));
#859=CARTESIAN_POINT('',(-0.0136976400051699,0.0155048323609082,0.));
#860=CARTESIAN_POINT('',(-0.0126976400051699,0.0155048323609082,0.));
#861=CARTESIAN_POINT('',(-0.0126976400051699,0.0155048323609082,-0.005));
#862=CARTESIAN_POINT('',(-0.0126976400051699,0.0155048323609082,0.002));
#863=CARTESIAN_POINT('',(-0.0114808429653493,0.0155048323609082,0.002));
#864=CARTESIAN_POINT('',(-0.0126976400051699,0.00241080344549423,-0.005));
#865=CARTESIAN_POINT('',(-0.0126976400051699,0.0145048323609082,-0.005));
#866=CARTESIAN_POINT('',(-0.0126976400051699,0.0145048323609082,0.003));
#867=CARTESIAN_POINT('',(-0.0126976400051699,0.00241080344549423,0.003));
#868=CARTESIAN_POINT('',(-0.0126976400051699,-0.00548180721236378,0.003));
#869=CARTESIAN_POINT('',(-0.0126976400051699,-0.00548180721236378,-0.005));
#870=CARTESIAN_POINT('',(0.00383619073016211,-0.00548180721236378,-0.005));
#871=CARTESIAN_POINT('',(0.00383619073016211,-0.00548180721236378,0.003));
#872=CARTESIAN_POINT('',(0.0203700257301621,-0.00548180721236378,0.003));
#873=CARTESIAN_POINT('',(0.0203700257301621,-0.00548180721236378,-0.005));
#874=CARTESIAN_POINT('',(-0.0114808429653493,0.0145048323609082,-0.005));
#875=CARTESIAN_POINT('',(-0.0114808429653493,0.0145048323609082,0.003));
#876=CARTESIAN_POINT('',(0.0038361928624961,0.00479086711681422,-0.003));
#877=CARTESIAN_POINT('',(-0.0039743227585349,0.0155048339017382,-0.002710377383361));
#878=CARTESIAN_POINT('',(0.0025256736476911,0.0147064813752555,-0.002710377383361));
#879=CARTESIAN_POINT('',(0.0115029884408766,0.0145048323609082,-0.005));
#880=CARTESIAN_POINT('',(0.0203700257301621,0.0145048323609082,-0.005));
#881=CARTESIAN_POINT('',(0.0203700257301621,0.0145048323609082,0.003));
#882=CARTESIAN_POINT('',(0.0115029884408766,0.0145048323609082,0.003));
#883=CARTESIAN_POINT('',(0.0153700257301621,0.00479086711681422,0.));
#884=CARTESIAN_POINT('',(0.0153700257301621,-0.00148180721236378,0.));
#885=CARTESIAN_POINT('',(0.0153700257301621,0.0105048323609082,0.));
#886=CARTESIAN_POINT('',(-0.0114808429653493,0.0105048323609082,0.));
#887=CARTESIAN_POINT('',(-0.0086976400051699,0.0105048323609082,0.));
#888=CARTESIAN_POINT('',(0.0153700257301621,0.0105048323609082,0.));
#889=CARTESIAN_POINT('',(0.00383619073016211,-0.00148180721236378,0.));
#890=CARTESIAN_POINT('',(-0.0086976400051699,-0.00148180721236378,0.));
#891=CARTESIAN_POINT('',(0.0153700257301621,-0.00148180721236378,0.));
#892=CARTESIAN_POINT('',(-0.0086976400051699,0.00241080344549423,0.));
#893=CARTESIAN_POINT('',(-0.0086976400051699,0.0105048323609082,0.));
#894=CARTESIAN_POINT('',(-0.0086976400051699,-0.00148180721236378,0.));
#895=CARTESIAN_POINT('',(0.0153700257301621,-0.00148180721236378,-0.00500000000000001));
#896=CARTESIAN_POINT('',(0.0153700257301621,-0.00148180721236378,-0.00500000000000001));
#897=CARTESIAN_POINT('',(0.0153700257301621,-0.00148180721236378,-0.00500000000000001));
#898=CARTESIAN_POINT('',(0.0160245242064792,-0.00200540599341621,-0.00500000000000001));
#899=CARTESIAN_POINT('',(0.0159590743680507,-0.00207085585025156,-0.00499999999999727));
#900=CARTESIAN_POINT('',(0.0158936245112154,-0.00213630568867922,-0.00500000000000001));
#901=CARTESIAN_POINT('',(0.017333216022661,-0.00305235944636352,-0.00473965621193018));
#902=CARTESIAN_POINT('',(0.0171822077981171,-0.00329398928031918,-0.00477967315740914));
#903=CARTESIAN_POINT('',(0.0169405779641615,-0.00344499750486343,-0.00473965621193018));
#904=CARTESIAN_POINT('',(0.0189976149628931,-0.00438387859854819,-0.003627589233583));
#905=CARTESIAN_POINT('',(0.0187949872539932,-0.00490676873619466,-0.0038192457169102));
#906=CARTESIAN_POINT('',(0.0182720971163465,-0.00510939644509457,-0.003627589233583));
#907=CARTESIAN_POINT('',(0.0201096819423357,-0.00527353218210355,-0.00196319028933425));
#908=CARTESIAN_POINT('',(0.0200270046289695,-0.00613878611117144,-0.00223278505570216));
#909=CARTESIAN_POINT('',(0.0191617506999023,-0.00622146342453744,-0.00196319028933425));
#910=CARTESIAN_POINT('',(0.0203700257301621,-0.00548180721236197,-0.000654498483133255));
#911=CARTESIAN_POINT('',(0.0203700257301595,-0.00648180721236072,-0.000785398163394896));
#912=CARTESIAN_POINT('',(0.0193700257301594,-0.00648180721236378,-0.000654498483133255));
#913=CARTESIAN_POINT('',(0.0203700257301621,-0.00548180721236378,3.82856869892695E-18));
#914=CARTESIAN_POINT('',(0.0203700257301621,-0.00648180721236378,4.59428243871234E-18));
#915=CARTESIAN_POINT('',(0.0193700257301621,-0.00648180721236378,3.82856869892695E-18));
#916=CARTESIAN_POINT('',(0.0193700257301621,-0.00548180721236378,0.));
#917=CARTESIAN_POINT('',(0.0193700257301621,-0.00548180721236378,-0.005));
#918=CARTESIAN_POINT('',(0.0193700257301621,-0.00548180721236378,0.002));
#919=CARTESIAN_POINT('',(-0.0086976400051699,-0.00148180721236378,-0.00500000000000001));
#920=CARTESIAN_POINT('',(-0.0086976400051699,-0.00148180721236378,-0.00500000000000001));
#921=CARTESIAN_POINT('',(-0.0086976400051699,-0.00148180721236378,-0.00500000000000001));
#922=CARTESIAN_POINT('',(-0.00922123878622322,-0.00213630568867922,-0.00500000000000001));
#923=CARTESIAN_POINT('',(-0.0092866886430592,-0.00207085585025156,-0.00499999999999727));
#924=CARTESIAN_POINT('',(-0.00935213848148703,-0.00200540599341621,-0.00500000000000001));
#925=CARTESIAN_POINT('',(-0.0102681922391693,-0.00344499750486343,-0.00473965621193018));
#926=CARTESIAN_POINT('',(-0.0105098220731246,-0.00329398928031919,-0.00477967315740921));
#927=CARTESIAN_POINT('',(-0.0106608302976688,-0.00305235944636352,-0.00473965621193018));
#928=CARTESIAN_POINT('',(-0.0115997113913543,-0.00510939644509457,-0.003627589233583));
#929=CARTESIAN_POINT('',(-0.012122601529001,-0.00490676873619454,-0.00381924571690998));
#930=CARTESIAN_POINT('',(-0.0123252292379009,-0.00438387859854819,-0.003627589233583));
#931=CARTESIAN_POINT('',(-0.0124893649749101,-0.00622146342453744,-0.00196319028933425));
#932=CARTESIAN_POINT('',(-0.0133546189039776,-0.00613878611117229,-0.00223278505570273));
#933=CARTESIAN_POINT('',(-0.0134372962173435,-0.00527353218210355,-0.00196319028933425));
#934=CARTESIAN_POINT('',(-0.0126976400051672,-0.00648180721236378,-0.000654498483133255));
#935=CARTESIAN_POINT('',(-0.0136976400051664,-0.00648180721235859,-0.000785398163394443));
#936=CARTESIAN_POINT('',(-0.0136976400051699,-0.00548180721236197,-0.000654498483133255));
#937=CARTESIAN_POINT('',(-0.0126976400051699,-0.00648180721236378,3.82856869892695E-18));
#938=CARTESIAN_POINT('',(-0.0136976400051699,-0.00648180721236378,4.59428243871234E-18));
#939=CARTESIAN_POINT('',(-0.0136976400051699,-0.00548180721236378,3.82856869892695E-18));
#940=CARTESIAN_POINT('',(-0.0126976400051699,-0.00548180721236378,0.));
#941=CARTESIAN_POINT('',(-0.0114808429653493,-0.00548180721236378,0.002));
#942=CARTESIAN_POINT('',(-0.0126976400051699,-0.00548180721236378,0.002));
#943=CARTESIAN_POINT('',(-0.0126976400051699,-0.00548180721236378,-0.005));
#944=CARTESIAN_POINT('',(-0.0126976400051699,-0.00548180721236378,0.002));
#945=CARTESIAN_POINT('',(-0.0126976400051699,-0.00548180721236378,0.002));
#946=CARTESIAN_POINT('',(-0.0126976400051699,-0.00548180721236378,0.002));
#947=CARTESIAN_POINT('',(-0.0114808429653493,0.0145048323609082,0.002));
#948=CARTESIAN_POINT('',(-0.0126976400051699,0.0145048323609082,0.002));
#949=CARTESIAN_POINT('',(-0.0126976400051699,0.0145048323609082,0.002));
#950=CARTESIAN_POINT('',(-0.0126976400051699,0.0145048323609082,0.002));
#951=CARTESIAN_POINT('',(-0.0126976400051699,0.0145048323609082,0.002));
#952=CARTESIAN_POINT('',(-0.0126976400051699,0.0145048323609082,0.002));
#953=CARTESIAN_POINT('',(-0.0126976400051699,0.0145048323609082,-0.005));
#954=CARTESIAN_POINT('',(-0.0126976400051699,0.0145048323609082,0.));
#955=CARTESIAN_POINT('',(-0.0086976400051699,0.0105048323609082,-0.005));
#956=CARTESIAN_POINT('',(-0.0086976400051699,0.0105048323609082,-0.005));
#957=CARTESIAN_POINT('',(-0.0086976400051699,0.0105048323609082,-0.005));
#958=CARTESIAN_POINT('',(-0.00935213848148289,0.011028431141959,-0.005));
#959=CARTESIAN_POINT('',(-0.00928668864305682,0.0110938809987918,-0.00499999999999598));
#960=CARTESIAN_POINT('',(-0.00922123878622068,0.0111593308372212,-0.005));
#961=CARTESIAN_POINT('',(-0.0106608302976707,0.0120753845949087,-0.00473965621193014));
#962=CARTESIAN_POINT('',(-0.0105098220731256,0.0123170144288655,-0.00477967315740992));
#963=CARTESIAN_POINT('',(-0.0102681922391704,0.012468022653409,-0.00473965621193014));
#964=CARTESIAN_POINT('',(-0.0123252292379004,0.0134069037470924,-0.00362758923358314));
#965=CARTESIAN_POINT('',(-0.0121226015290007,0.0139297938847385,-0.00381924571690953));
#966=CARTESIAN_POINT('',(-0.011599711391354,0.0141324215936387,-0.00362758923358314));
#967=CARTESIAN_POINT('',(-0.0134372962173437,0.0142965573306483,-0.00196319028933379));
#968=CARTESIAN_POINT('',(-0.0133546189039784,0.0151618112597171,-0.00223278505570328));
#969=CARTESIAN_POINT('',(-0.0124893649749102,0.015244488573082,-0.00196319028933379));
#970=CARTESIAN_POINT('',(-0.0136976400051699,0.0145048323609059,-0.000654498483134212));
#971=CARTESIAN_POINT('',(-0.0136976400051645,0.0155048323609024,-0.000785398163394785));
#972=CARTESIAN_POINT('',(-0.0126976400051672,0.0155048323609082,-0.000654498483134212));
#973=CARTESIAN_POINT('',(-0.0136976400051699,0.0145048323609082,8.88178419700125E-18));
#974=CARTESIAN_POINT('',(-0.0136976400051699,0.0155048323609082,1.06581410364015E-17));
#975=CARTESIAN_POINT('',(-0.0126976400051699,0.0155048323609082,8.88178419700126E-18));
#976=CARTESIAN_POINT('',(-0.0114808429653493,0.0145048323609082,0.002));
#977=CARTESIAN_POINT('',(0.0193700257301621,0.0145048323609082,0.002));
#978=CARTESIAN_POINT('',(0.0193700257301621,0.0145048323609082,0.001));
#979=CARTESIAN_POINT('',(0.0193700257301621,0.0145048323609082,0.));
#980=CARTESIAN_POINT('',(0.0153700257301621,0.0105048323609082,-0.005));
#981=CARTESIAN_POINT('',(0.0153700257301621,0.0105048323609082,-0.005));
#982=CARTESIAN_POINT('',(0.0153700257301621,0.0105048323609082,-0.005));
#983=CARTESIAN_POINT('',(0.0158936245112129,0.0111593308372212,-0.005));
#984=CARTESIAN_POINT('',(0.0159590743680484,0.0110938809987944,-0.00499999999999727));
#985=CARTESIAN_POINT('',(0.0160245242064751,0.011028431141959,-0.005));
#986=CARTESIAN_POINT('',(0.0169405779641626,0.012468022653409,-0.00473965621193014));
#987=CARTESIAN_POINT('',(0.0171822077981181,0.0123170144288644,-0.00477967315740917));
#988=CARTESIAN_POINT('',(0.0173332160226629,0.0120753845949087,-0.00473965621193014));
#989=CARTESIAN_POINT('',(0.0182720971163462,0.0141324215936387,-0.00362758923358314));
#990=CARTESIAN_POINT('',(0.0187949872539929,0.0139297938847388,-0.00381924571691015));
#991=CARTESIAN_POINT('',(0.0189976149628926,0.0134069037470925,-0.00362758923358314));
#992=CARTESIAN_POINT('',(0.0191617506999024,0.015244488573082,-0.0019631902893338));
#993=CARTESIAN_POINT('',(0.0200270046289694,0.0151618112597163,-0.00223278505570213));
#994=CARTESIAN_POINT('',(0.0201096819423359,0.0142965573306476,-0.00196319028933379));
#995=CARTESIAN_POINT('',(0.0193700257301594,0.0155048323609082,-0.000654498483134212));
#996=CARTESIAN_POINT('',(0.0203700257301598,0.0155048323609042,-0.000785398163395657));
#997=CARTESIAN_POINT('',(0.0203700257301621,0.0145048323609073,-0.000654498483134212));
#998=CARTESIAN_POINT('',(0.0193700257301621,0.0155048323609082,8.88178419700126E-18));
#999=CARTESIAN_POINT('',(0.0203700257301621,0.0155048323609082,1.06581410364015E-17));
#1000=CARTESIAN_POINT('',(0.0203700257301621,0.0145048323609082,8.88178419700126E-18));
#1001=MECHANICAL_DESIGN_GEOMETRIC_PRESENTATION_REPRESENTATION('',(#538),
#1002);
#1002=(
GEOMETRIC_REPRESENTATION_CONTEXT(3)
GLOBAL_UNCERTAINTY_ASSIGNED_CONTEXT((#1003))
GLOBAL_UNIT_ASSIGNED_CONTEXT((#1006,#1005,#1004))
REPRESENTATION_CONTEXT('Part 1','TOP_LEVEL_ASSEMBLY_PART')
);
#1003=UNCERTAINTY_MEASURE_WITH_UNIT(LENGTH_MEASURE(2.E-5),#1006,
'DISTANCE_ACCURACY_VALUE','Maximum Tolerance applied to model');
#1004=(
NAMED_UNIT(*)
SI_UNIT($,.STERADIAN.)
SOLID_ANGLE_UNIT()
);
#1005=(
NAMED_UNIT(*)
PLANE_ANGLE_UNIT()
SI_UNIT($,.RADIAN.)
);
#1006=(
LENGTH_UNIT()
NAMED_UNIT(*)
SI_UNIT($,.METRE.)
);
#1007=PRODUCT_DEFINITION_SHAPE('','',#1008);
#1008=PRODUCT_DEFINITION('','',#1010,#1009);
#1009=PRODUCT_DEFINITION_CONTEXT('',#1016,'design');
#1010=PRODUCT_DEFINITION_FORMATION_WITH_SPECIFIED_SOURCE('','',#1012,
 .NOT_KNOWN.);
#1011=PRODUCT_RELATED_PRODUCT_CATEGORY('','',(#1012));
#1012=PRODUCT('Part 1','Part 1','Part 1',(#1014));
#1013=PRODUCT_CATEGORY('','');
#1014=PRODUCT_CONTEXT('',#1016,'mechanical');
#1015=APPLICATION_PROTOCOL_DEFINITION('international standard',
'ap242_managed_model_based_3d_engineering',2020,#1016);
#1016=APPLICATION_CONTEXT('managed model based 3d engineering');
ENDSEC;
END-ISO-10303-21;
