ISO-10303-21;
HEADER;
/*Generated by software containing ST-Developer
 * from STEP Tools, Inc. (www.steptools.com) 
 */
/*OPTION: using custom renumber hook */
/*description */
/*implementation_level */
FILE_DESCRIPTION(('STEP AP242 Edition 2','STEP AP242 Edition 2''CAx-IF Rec.Pracs.---Representation and Presentation of Product Manufa
cturing Information (PMI)---4.0---2014-10-13','STEP AP242 Edition 2''CAx-IF Rec.Pracs.---Representation and Presentation of Product Manufa
cturing Information (PMI)---4.0---2014-10-13''CAx-IF Rec.Pracs.---3D Tessellated Geometry---0.4---2014-09-14','STEP AP242 Edition 2''CAx-IF Rec.Pracs.---Representation and Presentation of Product Manufa
cturing Information (PMI)---4.0---2014-10-13''CAx-IF Rec.Pracs.---3D Tessellated Geometry---0.4---2014-09-14''2;1','STEP AP242 Edition 2''CAx-IF Rec.Pracs.---Representation and Presentation of Product Manufa
cturing Information (PMI)---4.0---2014-10-13''CAx-IF Rec.Pracs.---3D Tessellated Geometry---0.4---2014-09-14''2;1''CAx-IF Rec.Pracs.---User Defined Attributes---1.5---2016-08-15'),'2;1');
/*name */
/*time_stamp */
/*author */
/*organization */
/*preprocessor_version */
/*originating_system */
/*authorisation */
FILE_NAME('/vol/tmp/translate-5796150404346271841/Part Studio 2 - Part 1.step','2026-05-31T14:26:41',(''),(''),'ST-DEVELOPER v20','ONSHAPE BY PTC INC, 1.215','  ');
FILE_SCHEMA(('AP242_MANAGED_MODEL_BASED_3D_ENGINEERING_MIM_LF { 1 0 10303 442 3 1 4 }'));
ENDSEC;
DATA;
#10=SHAPE_REPRESENTATION_RELATIONSHIP('','',#547,#11);
#11=ADVANCED_BREP_SHAPE_REPRESENTATION('',(#545),#905);
#12=ELLIPSE('',#583,0.00141421356237309,0.001);
#13=ELLIPSE('',#584,0.00141421356237309,0.001);
#14=ELLIPSE('',#586,0.00141421356237309,0.001);
#15=ELLIPSE('',#588,0.00141421356237309,0.001);
#16=CYLINDRICAL_SURFACE('',#582,0.001);
#17=CYLINDRICAL_SURFACE('',#585,0.001);
#18=CYLINDRICAL_SURFACE('',#587,0.001);
#19=CYLINDRICAL_SURFACE('',#589,0.001);
#20=CYLINDRICAL_SURFACE('',#590,0.0005);
#21=CYLINDRICAL_SURFACE('',#591,0.0005);
#22=CYLINDRICAL_SURFACE('',#592,0.0005);
#23=CYLINDRICAL_SURFACE('',#593,0.0005);
#24=CYLINDRICAL_SURFACE('',#594,0.0005);
#25=CYLINDRICAL_SURFACE('',#595,0.0005);
#26=CYLINDRICAL_SURFACE('',#596,0.0005);
#27=CIRCLE('',#556,0.0005);
#28=CIRCLE('',#557,0.0005);
#29=CIRCLE('',#558,0.0005);
#30=CIRCLE('',#559,0.0005);
#31=CIRCLE('',#560,0.0005);
#32=CIRCLE('',#561,0.0005);
#33=CIRCLE('',#562,0.0005);
#34=CIRCLE('',#575,0.0005);
#35=CIRCLE('',#576,0.0005);
#36=CIRCLE('',#577,0.0005);
#37=CIRCLE('',#578,0.0005);
#38=CIRCLE('',#579,0.0005);
#39=CIRCLE('',#580,0.0005);
#40=CIRCLE('',#581,0.0005);
#41=ORIENTED_EDGE('',*,*,#189,.T.);
#42=ORIENTED_EDGE('',*,*,#190,.T.);
#43=ORIENTED_EDGE('',*,*,#191,.T.);
#44=ORIENTED_EDGE('',*,*,#192,.T.);
#45=ORIENTED_EDGE('',*,*,#193,.F.);
#46=ORIENTED_EDGE('',*,*,#194,.T.);
#47=ORIENTED_EDGE('',*,*,#195,.T.);
#48=ORIENTED_EDGE('',*,*,#196,.F.);
#49=ORIENTED_EDGE('',*,*,#194,.F.);
#50=ORIENTED_EDGE('',*,*,#197,.T.);
#51=ORIENTED_EDGE('',*,*,#198,.F.);
#52=ORIENTED_EDGE('',*,*,#199,.F.);
#53=ORIENTED_EDGE('',*,*,#200,.T.);
#54=ORIENTED_EDGE('',*,*,#201,.T.);
#55=ORIENTED_EDGE('',*,*,#202,.T.);
#56=ORIENTED_EDGE('',*,*,#198,.T.);
#57=ORIENTED_EDGE('',*,*,#203,.F.);
#58=ORIENTED_EDGE('',*,*,#204,.F.);
#59=ORIENTED_EDGE('',*,*,#205,.F.);
#60=ORIENTED_EDGE('',*,*,#206,.F.);
#61=ORIENTED_EDGE('',*,*,#207,.F.);
#62=ORIENTED_EDGE('',*,*,#208,.T.);
#63=ORIENTED_EDGE('',*,*,#209,.T.);
#64=ORIENTED_EDGE('',*,*,#205,.T.);
#65=ORIENTED_EDGE('',*,*,#195,.F.);
#66=ORIENTED_EDGE('',*,*,#199,.T.);
#67=ORIENTED_EDGE('',*,*,#202,.F.);
#68=ORIENTED_EDGE('',*,*,#210,.F.);
#69=ORIENTED_EDGE('',*,*,#211,.F.);
#70=ORIENTED_EDGE('',*,*,#212,.T.);
#71=ORIENTED_EDGE('',*,*,#213,.F.);
#72=ORIENTED_EDGE('',*,*,#214,.T.);
#73=ORIENTED_EDGE('',*,*,#215,.T.);
#74=ORIENTED_EDGE('',*,*,#216,.T.);
#75=ORIENTED_EDGE('',*,*,#217,.T.);
#76=ORIENTED_EDGE('',*,*,#218,.T.);
#77=ORIENTED_EDGE('',*,*,#219,.T.);
#78=ORIENTED_EDGE('',*,*,#220,.T.);
#79=ORIENTED_EDGE('',*,*,#221,.F.);
#80=ORIENTED_EDGE('',*,*,#222,.T.);
#81=ORIENTED_EDGE('',*,*,#223,.F.);
#82=ORIENTED_EDGE('',*,*,#224,.T.);
#83=ORIENTED_EDGE('',*,*,#209,.F.);
#84=ORIENTED_EDGE('',*,*,#225,.T.);
#85=ORIENTED_EDGE('',*,*,#226,.T.);
#86=ORIENTED_EDGE('',*,*,#206,.T.);
#87=ORIENTED_EDGE('',*,*,#226,.F.);
#88=ORIENTED_EDGE('',*,*,#227,.T.);
#89=ORIENTED_EDGE('',*,*,#228,.T.);
#90=ORIENTED_EDGE('',*,*,#203,.T.);
#91=ORIENTED_EDGE('',*,*,#229,.F.);
#92=ORIENTED_EDGE('',*,*,#196,.T.);
#93=ORIENTED_EDGE('',*,*,#210,.T.);
#94=ORIENTED_EDGE('',*,*,#201,.F.);
#95=ORIENTED_EDGE('',*,*,#228,.F.);
#96=ORIENTED_EDGE('',*,*,#230,.T.);
#97=ORIENTED_EDGE('',*,*,#207,.T.);
#98=ORIENTED_EDGE('',*,*,#204,.T.);
#99=ORIENTED_EDGE('',*,*,#193,.T.);
#100=ORIENTED_EDGE('',*,*,#229,.T.);
#101=ORIENTED_EDGE('',*,*,#200,.F.);
#102=ORIENTED_EDGE('',*,*,#197,.F.);
#103=ORIENTED_EDGE('',*,*,#213,.T.);
#104=ORIENTED_EDGE('',*,*,#231,.T.);
#105=ORIENTED_EDGE('',*,*,#232,.F.);
#106=ORIENTED_EDGE('',*,*,#233,.T.);
#107=ORIENTED_EDGE('',*,*,#211,.T.);
#108=ORIENTED_EDGE('',*,*,#234,.T.);
#109=ORIENTED_EDGE('',*,*,#235,.F.);
#110=ORIENTED_EDGE('',*,*,#236,.T.);
#111=ORIENTED_EDGE('',*,*,#237,.F.);
#112=ORIENTED_EDGE('',*,*,#238,.T.);
#113=ORIENTED_EDGE('',*,*,#223,.T.);
#114=ORIENTED_EDGE('',*,*,#239,.T.);
#115=ORIENTED_EDGE('',*,*,#221,.T.);
#116=ORIENTED_EDGE('',*,*,#240,.T.);
#117=ORIENTED_EDGE('',*,*,#241,.F.);
#118=ORIENTED_EDGE('',*,*,#242,.T.);
#119=ORIENTED_EDGE('',*,*,#219,.F.);
#120=ORIENTED_EDGE('',*,*,#243,.T.);
#121=ORIENTED_EDGE('',*,*,#244,.T.);
#122=ORIENTED_EDGE('',*,*,#245,.T.);
#123=ORIENTED_EDGE('',*,*,#246,.T.);
#124=ORIENTED_EDGE('',*,*,#247,.T.);
#125=ORIENTED_EDGE('',*,*,#217,.F.);
#126=ORIENTED_EDGE('',*,*,#248,.T.);
#127=ORIENTED_EDGE('',*,*,#215,.F.);
#128=ORIENTED_EDGE('',*,*,#249,.T.);
#129=ORIENTED_EDGE('',*,*,#250,.T.);
#130=ORIENTED_EDGE('',*,*,#251,.T.);
#131=ORIENTED_EDGE('',*,*,#235,.T.);
#132=ORIENTED_EDGE('',*,*,#252,.T.);
#133=ORIENTED_EDGE('',*,*,#237,.T.);
#134=ORIENTED_EDGE('',*,*,#253,.T.);
#135=ORIENTED_EDGE('',*,*,#241,.T.);
#136=ORIENTED_EDGE('',*,*,#254,.T.);
#137=ORIENTED_EDGE('',*,*,#244,.F.);
#138=ORIENTED_EDGE('',*,*,#255,.T.);
#139=ORIENTED_EDGE('',*,*,#246,.F.);
#140=ORIENTED_EDGE('',*,*,#256,.T.);
#141=ORIENTED_EDGE('',*,*,#250,.F.);
#142=ORIENTED_EDGE('',*,*,#257,.T.);
#143=ORIENTED_EDGE('',*,*,#232,.T.);
#144=ORIENTED_EDGE('',*,*,#258,.T.);
#145=ORIENTED_EDGE('',*,*,#259,.F.);
#146=ORIENTED_EDGE('',*,*,#225,.F.);
#147=ORIENTED_EDGE('',*,*,#260,.F.);
#148=ORIENTED_EDGE('',*,*,#192,.F.);
#149=ORIENTED_EDGE('',*,*,#260,.T.);
#150=ORIENTED_EDGE('',*,*,#208,.F.);
#151=ORIENTED_EDGE('',*,*,#261,.F.);
#152=ORIENTED_EDGE('',*,*,#189,.F.);
#153=ORIENTED_EDGE('',*,*,#259,.T.);
#154=ORIENTED_EDGE('',*,*,#191,.F.);
#155=ORIENTED_EDGE('',*,*,#262,.F.);
#156=ORIENTED_EDGE('',*,*,#227,.F.);
#157=ORIENTED_EDGE('',*,*,#261,.T.);
#158=ORIENTED_EDGE('',*,*,#230,.F.);
#159=ORIENTED_EDGE('',*,*,#262,.T.);
#160=ORIENTED_EDGE('',*,*,#190,.F.);
#161=ORIENTED_EDGE('',*,*,#252,.F.);
#162=ORIENTED_EDGE('',*,*,#234,.F.);
#163=ORIENTED_EDGE('',*,*,#224,.F.);
#164=ORIENTED_EDGE('',*,*,#238,.F.);
#165=ORIENTED_EDGE('',*,*,#258,.F.);
#166=ORIENTED_EDGE('',*,*,#231,.F.);
#167=ORIENTED_EDGE('',*,*,#212,.F.);
#168=ORIENTED_EDGE('',*,*,#236,.F.);
#169=ORIENTED_EDGE('',*,*,#257,.F.);
#170=ORIENTED_EDGE('',*,*,#249,.F.);
#171=ORIENTED_EDGE('',*,*,#214,.F.);
#172=ORIENTED_EDGE('',*,*,#233,.F.);
#173=ORIENTED_EDGE('',*,*,#255,.F.);
#174=ORIENTED_EDGE('',*,*,#243,.F.);
#175=ORIENTED_EDGE('',*,*,#218,.F.);
#176=ORIENTED_EDGE('',*,*,#247,.F.);
#177=ORIENTED_EDGE('',*,*,#256,.F.);
#178=ORIENTED_EDGE('',*,*,#248,.F.);
#179=ORIENTED_EDGE('',*,*,#216,.F.);
#180=ORIENTED_EDGE('',*,*,#251,.F.);
#181=ORIENTED_EDGE('',*,*,#254,.F.);
#182=ORIENTED_EDGE('',*,*,#240,.F.);
#183=ORIENTED_EDGE('',*,*,#220,.F.);
#184=ORIENTED_EDGE('',*,*,#245,.F.);
#185=ORIENTED_EDGE('',*,*,#253,.F.);
#186=ORIENTED_EDGE('',*,*,#239,.F.);
#187=ORIENTED_EDGE('',*,*,#222,.F.);
#188=ORIENTED_EDGE('',*,*,#242,.F.);
#189=EDGE_CURVE('',#263,#264,#311,.T.);
#190=EDGE_CURVE('',#264,#265,#312,.T.);
#191=EDGE_CURVE('',#265,#266,#313,.T.);
#192=EDGE_CURVE('',#266,#263,#314,.T.);
#193=EDGE_CURVE('',#267,#268,#315,.T.);
#194=EDGE_CURVE('',#267,#269,#316,.T.);
#195=EDGE_CURVE('',#269,#270,#317,.T.);
#196=EDGE_CURVE('',#268,#270,#318,.T.);
#197=EDGE_CURVE('',#267,#271,#319,.T.);
#198=EDGE_CURVE('',#272,#271,#320,.F.);
#199=EDGE_CURVE('',#269,#272,#321,.T.);
#200=EDGE_CURVE('',#271,#273,#322,.T.);
#201=EDGE_CURVE('',#273,#274,#323,.T.);
#202=EDGE_CURVE('',#274,#272,#324,.F.);
#203=EDGE_CURVE('',#275,#276,#325,.T.);
#204=EDGE_CURVE('',#277,#275,#326,.T.);
#205=EDGE_CURVE('',#278,#277,#327,.F.);
#206=EDGE_CURVE('',#276,#278,#328,.F.);
#207=EDGE_CURVE('',#279,#277,#329,.T.);
#208=EDGE_CURVE('',#279,#280,#330,.F.);
#209=EDGE_CURVE('',#280,#278,#331,.T.);
#210=EDGE_CURVE('',#270,#274,#332,.T.);
#211=EDGE_CURVE('',#281,#282,#333,.T.);
#212=EDGE_CURVE('',#281,#283,#27,.F.);
#213=EDGE_CURVE('',#284,#283,#334,.T.);
#214=EDGE_CURVE('',#284,#285,#28,.T.);
#215=EDGE_CURVE('',#285,#286,#335,.T.);
#216=EDGE_CURVE('',#286,#287,#29,.T.);
#217=EDGE_CURVE('',#287,#288,#336,.T.);
#218=EDGE_CURVE('',#288,#289,#30,.F.);
#219=EDGE_CURVE('',#289,#290,#337,.T.);
#220=EDGE_CURVE('',#290,#291,#31,.T.);
#221=EDGE_CURVE('',#292,#291,#338,.T.);
#222=EDGE_CURVE('',#292,#293,#32,.T.);
#223=EDGE_CURVE('',#294,#293,#339,.T.);
#224=EDGE_CURVE('',#294,#282,#33,.T.);
#225=EDGE_CURVE('',#280,#295,#340,.F.);
#226=EDGE_CURVE('',#295,#276,#341,.T.);
#227=EDGE_CURVE('',#295,#296,#342,.F.);
#228=EDGE_CURVE('',#296,#275,#343,.T.);
#229=EDGE_CURVE('',#268,#273,#344,.T.);
#230=EDGE_CURVE('',#296,#279,#345,.F.);
#231=EDGE_CURVE('',#283,#297,#346,.F.);
#232=EDGE_CURVE('',#298,#297,#347,.T.);
#233=EDGE_CURVE('',#298,#284,#348,.T.);
#234=EDGE_CURVE('',#282,#299,#349,.F.);
#235=EDGE_CURVE('',#300,#299,#350,.T.);
#236=EDGE_CURVE('',#300,#281,#351,.T.);
#237=EDGE_CURVE('',#301,#302,#352,.T.);
#238=EDGE_CURVE('',#301,#294,#353,.T.);
#239=EDGE_CURVE('',#293,#302,#354,.F.);
#240=EDGE_CURVE('',#291,#303,#355,.F.);
#241=EDGE_CURVE('',#304,#303,#356,.T.);
#242=EDGE_CURVE('',#304,#292,#357,.T.);
#243=EDGE_CURVE('',#289,#305,#358,.F.);
#244=EDGE_CURVE('',#305,#306,#359,.T.);
#245=EDGE_CURVE('',#306,#290,#360,.T.);
#246=EDGE_CURVE('',#307,#308,#361,.T.);
#247=EDGE_CURVE('',#308,#288,#362,.T.);
#248=EDGE_CURVE('',#287,#307,#363,.F.);
#249=EDGE_CURVE('',#285,#309,#364,.F.);
#250=EDGE_CURVE('',#309,#310,#365,.T.);
#251=EDGE_CURVE('',#310,#286,#366,.T.);
#252=EDGE_CURVE('',#299,#301,#34,.T.);
#253=EDGE_CURVE('',#302,#304,#35,.T.);
#254=EDGE_CURVE('',#303,#306,#36,.T.);
#255=EDGE_CURVE('',#305,#308,#37,.F.);
#256=EDGE_CURVE('',#307,#310,#38,.T.);
#257=EDGE_CURVE('',#309,#298,#39,.T.);
#258=EDGE_CURVE('',#297,#300,#40,.F.);
#259=EDGE_CURVE('',#295,#266,#12,.F.);
#260=EDGE_CURVE('',#263,#280,#13,.T.);
#261=EDGE_CURVE('',#264,#279,#14,.T.);
#262=EDGE_CURVE('',#296,#265,#15,.F.);
#263=VERTEX_POINT('',#754);
#264=VERTEX_POINT('',#755);
#265=VERTEX_POINT('',#757);
#266=VERTEX_POINT('',#759);
#267=VERTEX_POINT('',#763);
#268=VERTEX_POINT('',#764);
#269=VERTEX_POINT('',#766);
#270=VERTEX_POINT('',#768);
#271=VERTEX_POINT('',#772);
#272=VERTEX_POINT('',#774);
#273=VERTEX_POINT('',#778);
#274=VERTEX_POINT('',#780);
#275=VERTEX_POINT('',#783);
#276=VERTEX_POINT('',#784);
#277=VERTEX_POINT('',#786);
#278=VERTEX_POINT('',#788);
#279=VERTEX_POINT('',#792);
#280=VERTEX_POINT('',#794);
#281=VERTEX_POINT('',#800);
#282=VERTEX_POINT('',#801);
#283=VERTEX_POINT('',#803);
#284=VERTEX_POINT('',#805);
#285=VERTEX_POINT('',#807);
#286=VERTEX_POINT('',#809);
#287=VERTEX_POINT('',#811);
#288=VERTEX_POINT('',#813);
#289=VERTEX_POINT('',#815);
#290=VERTEX_POINT('',#817);
#291=VERTEX_POINT('',#819);
#292=VERTEX_POINT('',#821);
#293=VERTEX_POINT('',#823);
#294=VERTEX_POINT('',#825);
#295=VERTEX_POINT('',#828);
#296=VERTEX_POINT('',#832);
#297=VERTEX_POINT('',#841);
#298=VERTEX_POINT('',#843);
#299=VERTEX_POINT('',#847);
#300=VERTEX_POINT('',#849);
#301=VERTEX_POINT('',#853);
#302=VERTEX_POINT('',#854);
#303=VERTEX_POINT('',#859);
#304=VERTEX_POINT('',#861);
#305=VERTEX_POINT('',#865);
#306=VERTEX_POINT('',#867);
#307=VERTEX_POINT('',#871);
#308=VERTEX_POINT('',#872);
#309=VERTEX_POINT('',#877);
#310=VERTEX_POINT('',#879);
#311=LINE('',#753,#367);
#312=LINE('',#756,#368);
#313=LINE('',#758,#369);
#314=LINE('',#760,#370);
#315=LINE('',#762,#371);
#316=LINE('',#765,#372);
#317=LINE('',#767,#373);
#318=LINE('',#769,#374);
#319=LINE('',#771,#375);
#320=LINE('',#773,#376);
#321=LINE('',#775,#377);
#322=LINE('',#777,#378);
#323=LINE('',#779,#379);
#324=LINE('',#781,#380);
#325=LINE('',#782,#381);
#326=LINE('',#785,#382);
#327=LINE('',#787,#383);
#328=LINE('',#789,#384);
#329=LINE('',#791,#385);
#330=LINE('',#793,#386);
#331=LINE('',#795,#387);
#332=LINE('',#797,#388);
#333=LINE('',#799,#389);
#334=LINE('',#804,#390);
#335=LINE('',#808,#391);
#336=LINE('',#812,#392);
#337=LINE('',#816,#393);
#338=LINE('',#820,#394);
#339=LINE('',#824,#395);
#340=LINE('',#827,#396);
#341=LINE('',#829,#397);
#342=LINE('',#831,#398);
#343=LINE('',#833,#399);
#344=LINE('',#835,#400);
#345=LINE('',#837,#401);
#346=LINE('',#840,#402);
#347=LINE('',#842,#403);
#348=LINE('',#844,#404);
#349=LINE('',#846,#405);
#350=LINE('',#848,#406);
#351=LINE('',#850,#407);
#352=LINE('',#852,#408);
#353=LINE('',#855,#409);
#354=LINE('',#856,#410);
#355=LINE('',#858,#411);
#356=LINE('',#860,#412);
#357=LINE('',#862,#413);
#358=LINE('',#864,#414);
#359=LINE('',#866,#415);
#360=LINE('',#868,#416);
#361=LINE('',#870,#417);
#362=LINE('',#873,#418);
#363=LINE('',#874,#419);
#364=LINE('',#876,#420);
#365=LINE('',#878,#421);
#366=LINE('',#880,#422);
#367=VECTOR('',#601,1.);
#368=VECTOR('',#602,1.);
#369=VECTOR('',#603,1.);
#370=VECTOR('',#604,1.);
#371=VECTOR('',#607,1.);
#372=VECTOR('',#608,1.);
#373=VECTOR('',#609,1.);
#374=VECTOR('',#610,1.);
#375=VECTOR('',#613,1.);
#376=VECTOR('',#614,1.);
#377=VECTOR('',#615,1.);
#378=VECTOR('',#618,1.);
#379=VECTOR('',#619,1.);
#380=VECTOR('',#620,1.);
#381=VECTOR('',#621,1.);
#382=VECTOR('',#622,1.);
#383=VECTOR('',#623,1.);
#384=VECTOR('',#624,1.);
#385=VECTOR('',#627,1.);
#386=VECTOR('',#628,1.);
#387=VECTOR('',#629,1.);
#388=VECTOR('',#632,1.);
#389=VECTOR('',#635,1.);
#390=VECTOR('',#638,1.);
#391=VECTOR('',#641,1.);
#392=VECTOR('',#644,1.);
#393=VECTOR('',#647,1.);
#394=VECTOR('',#650,1.);
#395=VECTOR('',#653,1.);
#396=VECTOR('',#656,1.);
#397=VECTOR('',#657,1.);
#398=VECTOR('',#660,1.);
#399=VECTOR('',#661,1.);
#400=VECTOR('',#664,1.);
#401=VECTOR('',#667,1.);
#402=VECTOR('',#672,1.);
#403=VECTOR('',#673,1.);
#404=VECTOR('',#674,1.);
#405=VECTOR('',#677,1.);
#406=VECTOR('',#678,1.);
#407=VECTOR('',#679,1.);
#408=VECTOR('',#682,1.);
#409=VECTOR('',#683,1.);
#410=VECTOR('',#684,1.);
#411=VECTOR('',#687,1.);
#412=VECTOR('',#688,1.);
#413=VECTOR('',#689,1.);
#414=VECTOR('',#692,1.);
#415=VECTOR('',#693,1.);
#416=VECTOR('',#694,1.);
#417=VECTOR('',#697,1.);
#418=VECTOR('',#698,1.);
#419=VECTOR('',#699,1.);
#420=VECTOR('',#702,1.);
#421=VECTOR('',#703,1.);
#422=VECTOR('',#704,1.);
#423=EDGE_LOOP('',(#41,#42,#43,#44));
#424=EDGE_LOOP('',(#45,#46,#47,#48));
#425=EDGE_LOOP('',(#49,#50,#51,#52));
#426=EDGE_LOOP('',(#53,#54,#55,#56));
#427=EDGE_LOOP('',(#57,#58,#59,#60));
#428=EDGE_LOOP('',(#61,#62,#63,#64));
#429=EDGE_LOOP('',(#65,#66,#67,#68));
#430=EDGE_LOOP('',(#69,#70,#71,#72,#73,#74,#75,#76,#77,#78,#79,#80,#81,#82));
#431=EDGE_LOOP('',(#83,#84,#85,#86));
#432=EDGE_LOOP('',(#87,#88,#89,#90));
#433=EDGE_LOOP('',(#91,#92,#93,#94));
#434=EDGE_LOOP('',(#95,#96,#97,#98));
#435=EDGE_LOOP('',(#99,#100,#101,#102));
#436=EDGE_LOOP('',(#103,#104,#105,#106));
#437=EDGE_LOOP('',(#107,#108,#109,#110));
#438=EDGE_LOOP('',(#111,#112,#113,#114));
#439=EDGE_LOOP('',(#115,#116,#117,#118));
#440=EDGE_LOOP('',(#119,#120,#121,#122));
#441=EDGE_LOOP('',(#123,#124,#125,#126));
#442=EDGE_LOOP('',(#127,#128,#129,#130));
#443=EDGE_LOOP('',(#131,#132,#133,#134,#135,#136,#137,#138,#139,#140,#141,#142,#143,#144));
#444=EDGE_LOOP('',(#145,#146,#147,#148));
#445=EDGE_LOOP('',(#149,#150,#151,#152));
#446=EDGE_LOOP('',(#153,#154,#155,#156));
#447=EDGE_LOOP('',(#157,#158,#159,#160));
#448=EDGE_LOOP('',(#161,#162,#163,#164));
#449=EDGE_LOOP('',(#165,#166,#167,#168));
#450=EDGE_LOOP('',(#169,#170,#171,#172));
#451=EDGE_LOOP('',(#173,#174,#175,#176));
#452=EDGE_LOOP('',(#177,#178,#179,#180));
#453=EDGE_LOOP('',(#181,#182,#183,#184));
#454=EDGE_LOOP('',(#185,#186,#187,#188));
#455=FACE_BOUND('',#423,.T.);
#456=FACE_BOUND('',#424,.T.);
#457=FACE_BOUND('',#425,.T.);
#458=FACE_BOUND('',#426,.T.);
#459=FACE_BOUND('',#427,.T.);
#460=FACE_BOUND('',#428,.T.);
#461=FACE_BOUND('',#429,.T.);
#462=FACE_BOUND('',#430,.T.);
#463=FACE_BOUND('',#431,.T.);
#464=FACE_BOUND('',#432,.T.);
#465=FACE_BOUND('',#433,.T.);
#466=FACE_BOUND('',#434,.T.);
#467=FACE_BOUND('',#435,.T.);
#468=FACE_BOUND('',#436,.T.);
#469=FACE_BOUND('',#437,.T.);
#470=FACE_BOUND('',#438,.T.);
#471=FACE_BOUND('',#439,.T.);
#472=FACE_BOUND('',#440,.T.);
#473=FACE_BOUND('',#441,.T.);
#474=FACE_BOUND('',#442,.T.);
#475=FACE_BOUND('',#443,.T.);
#476=FACE_BOUND('',#444,.T.);
#477=FACE_BOUND('',#445,.T.);
#478=FACE_BOUND('',#446,.T.);
#479=FACE_BOUND('',#447,.T.);
#480=FACE_BOUND('',#448,.T.);
#481=FACE_BOUND('',#449,.T.);
#482=FACE_BOUND('',#450,.T.);
#483=FACE_BOUND('',#451,.T.);
#484=FACE_BOUND('',#452,.T.);
#485=FACE_BOUND('',#453,.T.);
#486=FACE_BOUND('',#454,.T.);
#487=PLANE('',#549);
#488=PLANE('',#550);
#489=PLANE('',#551);
#490=PLANE('',#552);
#491=PLANE('',#553);
#492=PLANE('',#554);
#493=PLANE('',#555);
#494=PLANE('',#563);
#495=PLANE('',#564);
#496=PLANE('',#565);
#497=PLANE('',#566);
#498=PLANE('',#567);
#499=PLANE('',#568);
#500=PLANE('',#569);
#501=PLANE('',#570);
#502=PLANE('',#571);
#503=PLANE('',#572);
#504=PLANE('',#573);
#505=PLANE('',#574);
#506=ADVANCED_FACE('',(#455),#487,.F.);
#507=ADVANCED_FACE('',(#456),#488,.T.);
#508=ADVANCED_FACE('',(#457),#489,.T.);
#509=ADVANCED_FACE('',(#458,#459),#490,.F.);
#510=ADVANCED_FACE('',(#460),#491,.F.);
#511=ADVANCED_FACE('',(#461),#492,.T.);
#512=ADVANCED_FACE('',(#462,#463),#493,.F.);
#513=ADVANCED_FACE('',(#464),#494,.F.);
#514=ADVANCED_FACE('',(#465),#495,.T.);
#515=ADVANCED_FACE('',(#466),#496,.F.);
#516=ADVANCED_FACE('',(#467),#497,.T.);
#517=ADVANCED_FACE('',(#468),#498,.F.);
#518=ADVANCED_FACE('',(#469),#499,.F.);
#519=ADVANCED_FACE('',(#470),#500,.F.);
#520=ADVANCED_FACE('',(#471),#501,.F.);
#521=ADVANCED_FACE('',(#472),#502,.T.);
#522=ADVANCED_FACE('',(#473),#503,.T.);
#523=ADVANCED_FACE('',(#474),#504,.T.);
#524=ADVANCED_FACE('',(#475),#505,.T.);
#525=ADVANCED_FACE('',(#476),#16,.T.);
#526=ADVANCED_FACE('',(#477),#17,.T.);
#527=ADVANCED_FACE('',(#478),#18,.T.);
#528=ADVANCED_FACE('',(#479),#19,.T.);
#529=ADVANCED_FACE('',(#480),#20,.F.);
#530=ADVANCED_FACE('',(#481),#21,.T.);
#531=ADVANCED_FACE('',(#482),#22,.F.);
#532=ADVANCED_FACE('',(#483),#23,.T.);
#533=ADVANCED_FACE('',(#484),#24,.F.);
#534=ADVANCED_FACE('',(#485),#25,.F.);
#535=ADVANCED_FACE('',(#486),#26,.F.);
#536=CLOSED_SHELL('',(#506,#507,#508,#509,#510,#511,#512,#513,#514,#515,#516,#517,#518,#519,#520,#521,#522,#523,#524,#525,#526,#527,#528,#529,#530,#531,#532,#533,#534,#535));
#537=STYLED_ITEM('',(#538),#545);
#538=PRESENTATION_STYLE_ASSIGNMENT((#539));
#539=SURFACE_STYLE_USAGE(.BOTH.,#540);
#540=SURFACE_SIDE_STYLE('',(#541));
#541=SURFACE_STYLE_FILL_AREA(#542);
#542=FILL_AREA_STYLE('',(#543));
#543=FILL_AREA_STYLE_COLOUR('',#544);
#544=COLOUR_RGB('',0.615686274509804,0.811764705882353,0.929411764705882);
#545=MANIFOLD_SOLID_BREP('Part 1',#536);
#546=SHAPE_DEFINITION_REPRESENTATION(#910,#547);
#547=SHAPE_REPRESENTATION('Part 1',(#548),#905);
#548=AXIS2_PLACEMENT_3D('',#751,#597,#598);
#549=AXIS2_PLACEMENT_3D('',#752,#599,#600);
#550=AXIS2_PLACEMENT_3D('',#761,#605,#606);
#551=AXIS2_PLACEMENT_3D('',#770,#611,#612);
#552=AXIS2_PLACEMENT_3D('',#776,#616,#617);
#553=AXIS2_PLACEMENT_3D('',#790,#625,#626);
#554=AXIS2_PLACEMENT_3D('',#796,#630,#631);
#555=AXIS2_PLACEMENT_3D('',#798,#633,#634);
#556=AXIS2_PLACEMENT_3D('',#802,#636,#637);
#557=AXIS2_PLACEMENT_3D('',#806,#639,#640);
#558=AXIS2_PLACEMENT_3D('',#810,#642,#643);
#559=AXIS2_PLACEMENT_3D('',#814,#645,#646);
#560=AXIS2_PLACEMENT_3D('',#818,#648,#649);
#561=AXIS2_PLACEMENT_3D('',#822,#651,#652);
#562=AXIS2_PLACEMENT_3D('',#826,#654,#655);
#563=AXIS2_PLACEMENT_3D('',#830,#658,#659);
#564=AXIS2_PLACEMENT_3D('',#834,#662,#663);
#565=AXIS2_PLACEMENT_3D('',#836,#665,#666);
#566=AXIS2_PLACEMENT_3D('',#838,#668,#669);
#567=AXIS2_PLACEMENT_3D('',#839,#670,#671);
#568=AXIS2_PLACEMENT_3D('',#845,#675,#676);
#569=AXIS2_PLACEMENT_3D('',#851,#680,#681);
#570=AXIS2_PLACEMENT_3D('',#857,#685,#686);
#571=AXIS2_PLACEMENT_3D('',#863,#690,#691);
#572=AXIS2_PLACEMENT_3D('',#869,#695,#696);
#573=AXIS2_PLACEMENT_3D('',#875,#700,#701);
#574=AXIS2_PLACEMENT_3D('',#881,#705,#706);
#575=AXIS2_PLACEMENT_3D('',#882,#707,#708);
#576=AXIS2_PLACEMENT_3D('',#883,#709,#710);
#577=AXIS2_PLACEMENT_3D('',#884,#711,#712);
#578=AXIS2_PLACEMENT_3D('',#885,#713,#714);
#579=AXIS2_PLACEMENT_3D('',#886,#715,#716);
#580=AXIS2_PLACEMENT_3D('',#887,#717,#718);
#581=AXIS2_PLACEMENT_3D('',#888,#719,#720);
#582=AXIS2_PLACEMENT_3D('',#889,#721,#722);
#583=AXIS2_PLACEMENT_3D('',#890,#723,#724);
#584=AXIS2_PLACEMENT_3D('',#891,#725,#726);
#585=AXIS2_PLACEMENT_3D('',#892,#727,#728);
#586=AXIS2_PLACEMENT_3D('',#893,#729,#730);
#587=AXIS2_PLACEMENT_3D('',#894,#731,#732);
#588=AXIS2_PLACEMENT_3D('',#895,#733,#734);
#589=AXIS2_PLACEMENT_3D('',#896,#735,#736);
#590=AXIS2_PLACEMENT_3D('',#897,#737,#738);
#591=AXIS2_PLACEMENT_3D('',#898,#739,#740);
#592=AXIS2_PLACEMENT_3D('',#899,#741,#742);
#593=AXIS2_PLACEMENT_3D('',#900,#743,#744);
#594=AXIS2_PLACEMENT_3D('',#901,#745,#746);
#595=AXIS2_PLACEMENT_3D('',#902,#747,#748);
#596=AXIS2_PLACEMENT_3D('',#903,#749,#750);
#597=DIRECTION('',(0.,0.,1.));
#598=DIRECTION('',(1.,0.,0.));
#599=DIRECTION('',(0.,0.,1.));
#600=DIRECTION('',(1.,0.,0.));
#601=DIRECTION('',(1.224646799147E-16,-1.,0.));
#602=DIRECTION('',(-1.,-1.224646799147E-16,0.));
#603=DIRECTION('',(-1.224646799147E-16,1.,0.));
#604=DIRECTION('',(1.,1.224646799147E-16,0.));
#605=DIRECTION('',(0.,0.,1.));
#606=DIRECTION('',(1.,0.,0.));
#607=DIRECTION('',(-1.,-1.42190532621154E-16,0.));
#608=DIRECTION('',(0.,1.,0.));
#609=DIRECTION('',(-1.,-1.42190532621154E-16,0.));
#610=DIRECTION('',(0.,1.,0.));
#611=DIRECTION('',(-1.,-1.224646799147E-16,0.));
#612=DIRECTION('',(1.224646799147E-16,-1.,0.));
#613=DIRECTION('',(0.,0.,1.));
#614=DIRECTION('',(-1.224646799147E-16,1.,0.));
#615=DIRECTION('',(0.,0.,1.));
#616=DIRECTION('',(0.,0.,-1.));
#617=DIRECTION('',(-1.,0.,0.));
#618=DIRECTION('',(-1.,-1.224646799147E-16,0.));
#619=DIRECTION('',(-1.224646799147E-16,1.,0.));
#620=DIRECTION('',(-1.,-1.224646799147E-16,0.));
#621=DIRECTION('',(-1.224646799147E-16,1.,0.));
#622=DIRECTION('',(-1.,-1.224646799147E-16,0.));
#623=DIRECTION('',(-1.224646799147E-16,1.,0.));
#624=DIRECTION('',(-1.,-1.224646799147E-16,0.));
#625=DIRECTION('',(-1.,-1.224646799147E-16,0.));
#626=DIRECTION('',(1.224646799147E-16,-1.,0.));
#627=DIRECTION('',(0.,0.,1.));
#628=DIRECTION('',(1.224646799147E-16,-1.,0.));
#629=DIRECTION('',(0.,0.,1.));
#630=DIRECTION('',(1.224646799147E-16,-1.,0.));
#631=DIRECTION('',(1.,1.224646799147E-16,0.));
#632=DIRECTION('',(0.,0.,1.));
#633=DIRECTION('',(1.224646799147E-16,-1.,0.));
#634=DIRECTION('',(1.,1.224646799147E-16,0.));
#635=DIRECTION('',(-1.,-1.224646799147E-16,0.));
#636=DIRECTION('',(1.224646799147E-16,-1.,0.));
#637=DIRECTION('',(1.,1.224646799147E-16,0.));
#638=DIRECTION('',(-3.61400724161835E-17,-4.42588240054199E-33,1.));
#639=DIRECTION('',(1.224646799147E-16,-1.,0.));
#640=DIRECTION('',(1.,1.224646799147E-16,0.));
#641=DIRECTION('',(1.,1.224646799147E-16,0.));
#642=DIRECTION('',(1.224646799147E-16,-1.,0.));
#643=DIRECTION('',(1.,1.224646799147E-16,0.));
#644=DIRECTION('',(-3.61400724161835E-17,-4.42588240054199E-33,1.));
#645=DIRECTION('',(1.224646799147E-16,-1.,0.));
#646=DIRECTION('',(1.,1.224646799147E-16,0.));
#647=DIRECTION('',(1.,1.224646799147E-16,0.));
#648=DIRECTION('',(1.224646799147E-16,-1.,0.));
#649=DIRECTION('',(1.,1.224646799147E-16,0.));
#650=DIRECTION('',(0.707106781186548,8.65956056235244E-17,-0.707106781186548));
#651=DIRECTION('',(1.224646799147E-16,-1.,0.));
#652=DIRECTION('',(1.,1.224646799147E-16,0.));
#653=DIRECTION('',(0.707106781186548,8.65956056235244E-17,0.707106781186548));
#654=DIRECTION('',(1.224646799147E-16,-1.,0.));
#655=DIRECTION('',(1.,1.224646799147E-16,0.));
#656=DIRECTION('',(1.,1.224646799147E-16,0.));
#657=DIRECTION('',(0.,0.,1.));
#658=DIRECTION('',(1.,1.224646799147E-16,0.));
#659=DIRECTION('',(-1.224646799147E-16,1.,0.));
#660=DIRECTION('',(-1.224646799147E-16,1.,0.));
#661=DIRECTION('',(0.,0.,1.));
#662=DIRECTION('',(1.,1.224646799147E-16,0.));
#663=DIRECTION('',(-1.224646799147E-16,1.,0.));
#664=DIRECTION('',(0.,0.,1.));
#665=DIRECTION('',(-1.224646799147E-16,1.,0.));
#666=DIRECTION('',(-1.,-1.224646799147E-16,0.));
#667=DIRECTION('',(-1.,-1.224646799147E-16,0.));
#668=DIRECTION('',(-1.224646799147E-16,1.,0.));
#669=DIRECTION('',(-1.,-1.224646799147E-16,0.));
#670=DIRECTION('',(-1.,-1.224646799147E-16,-3.61400724161835E-17));
#671=DIRECTION('',(1.224646799147E-16,-1.,0.));
#672=DIRECTION('',(-1.224646799147E-16,1.,0.));
#673=DIRECTION('',(-3.61400724161835E-17,-4.42588240054199E-33,1.));
#674=DIRECTION('',(-1.224646799147E-16,1.,0.));
#675=DIRECTION('',(0.,0.,-1.));
#676=DIRECTION('',(-1.,0.,0.));
#677=DIRECTION('',(-1.224646799147E-16,1.,0.));
#678=DIRECTION('',(-1.,-1.224646799147E-16,0.));
#679=DIRECTION('',(-1.224646799147E-16,1.,0.));
#680=DIRECTION('',(-0.707106781186548,-8.65956056235244E-17,0.707106781186548));
#681=DIRECTION('',(0.707106781186548,0.,0.707106781186548));
#682=DIRECTION('',(0.707106781186548,8.65956056235244E-17,0.707106781186548));
#683=DIRECTION('',(-1.224646799147E-16,1.,0.));
#684=DIRECTION('',(-1.224646799147E-16,1.,0.));
#685=DIRECTION('',(0.707106781186548,8.65956056235244E-17,0.707106781186548));
#686=DIRECTION('',(0.707106781186548,0.,-0.707106781186548));
#687=DIRECTION('',(-1.224646799147E-16,1.,1.17972519031248E-32));
#688=DIRECTION('',(0.707106781186548,8.65956056235244E-17,-0.707106781186548));
#689=DIRECTION('',(-1.224646799147E-16,1.,7.4393699070722E-33));
#690=DIRECTION('',(0.,0.,1.));
#691=DIRECTION('',(1.,0.,0.));
#692=DIRECTION('',(-1.224646799147E-16,1.,0.));
#693=DIRECTION('',(1.,1.224646799147E-16,0.));
#694=DIRECTION('',(-1.224646799147E-16,1.,0.));
#695=DIRECTION('',(-1.,-1.224646799147E-16,-3.61400724161835E-17));
#696=DIRECTION('',(1.224646799147E-16,-1.,0.));
#697=DIRECTION('',(-3.61400724161835E-17,-4.42588240054199E-33,1.));
#698=DIRECTION('',(-1.224646799147E-16,1.,0.));
#699=DIRECTION('',(-1.224646799147E-16,1.,0.));
#700=DIRECTION('',(0.,0.,1.));
#701=DIRECTION('',(1.,0.,0.));
#702=DIRECTION('',(-1.224646799147E-16,1.,0.));
#703=DIRECTION('',(1.,1.224646799147E-16,0.));
#704=DIRECTION('',(-1.224646799147E-16,1.,0.));
#705=DIRECTION('',(-1.224646799147E-16,1.,0.));
#706=DIRECTION('',(-1.,-1.224646799147E-16,0.));
#707=DIRECTION('',(-1.224646799147E-16,1.,0.));
#708=DIRECTION('',(-1.,-1.224646799147E-16,0.));
#709=DIRECTION('',(-1.224646799147E-16,1.,0.));
#710=DIRECTION('',(-1.,-1.224646799147E-16,0.));
#711=DIRECTION('',(-1.224646799147E-16,1.,0.));
#712=DIRECTION('',(-1.,-1.224646799147E-16,0.));
#713=DIRECTION('',(-1.224646799147E-16,1.,0.));
#714=DIRECTION('',(-1.,-1.224646799147E-16,0.));
#715=DIRECTION('',(-1.224646799147E-16,1.,0.));
#716=DIRECTION('',(-1.,-1.224646799147E-16,0.));
#717=DIRECTION('',(-1.224646799147E-16,1.,0.));
#718=DIRECTION('',(-1.,-1.224646799147E-16,0.));
#719=DIRECTION('',(-1.224646799147E-16,1.,0.));
#720=DIRECTION('',(-1.,-1.224646799147E-16,0.));
#721=DIRECTION('',(1.,1.224646799147E-16,0.));
#722=DIRECTION('',(-1.224646799147E-16,1.,0.));
#723=DIRECTION('',(0.707106781186547,0.707106781186548,0.));
#724=DIRECTION('',(0.707106781186548,-0.707106781186547,0.));
#725=DIRECTION('',(0.707106781186548,-0.707106781186547,0.));
#726=DIRECTION('',(0.707106781186547,0.707106781186548,0.));
#727=DIRECTION('',(1.224646799147E-16,-1.,0.));
#728=DIRECTION('',(1.,1.224646799147E-16,0.));
#729=DIRECTION('',(-0.707106781186547,-0.707106781186548,0.));
#730=DIRECTION('',(0.707106781186548,-0.707106781186547,0.));
#731=DIRECTION('',(-1.224646799147E-16,1.,0.));
#732=DIRECTION('',(-1.,-1.224646799147E-16,0.));
#733=DIRECTION('',(-0.707106781186548,0.707106781186547,0.));
#734=DIRECTION('',(0.707106781186547,0.707106781186548,0.));
#735=DIRECTION('',(-1.,-1.224646799147E-16,0.));
#736=DIRECTION('',(1.224646799147E-16,-1.,0.));
#737=DIRECTION('',(1.224646799147E-16,-1.,0.));
#738=DIRECTION('',(1.,1.224646799147E-16,0.));
#739=DIRECTION('',(-1.224646799147E-16,1.,0.));
#740=DIRECTION('',(-1.,-1.224646799147E-16,0.));
#741=DIRECTION('',(-1.224646799147E-16,1.,0.));
#742=DIRECTION('',(-1.,-1.224646799147E-16,0.));
#743=DIRECTION('',(-1.224646799147E-16,1.,0.));
#744=DIRECTION('',(-1.,-1.224646799147E-16,0.));
#745=DIRECTION('',(1.224646799147E-16,-1.,0.));
#746=DIRECTION('',(1.,1.224646799147E-16,0.));
#747=DIRECTION('',(-1.224646799147E-16,1.,0.));
#748=DIRECTION('',(-1.,-1.224646799147E-16,0.));
#749=DIRECTION('',(1.224646799147E-16,-1.,0.));
#750=DIRECTION('',(1.,1.224646799147E-16,0.));
#751=CARTESIAN_POINT('',(0.,0.,0.));
#752=CARTESIAN_POINT('',(0.,0.,-0.001));
#753=CARTESIAN_POINT('',(0.006099996406226,7.47034107369288E-19,-0.001));
#754=CARTESIAN_POINT('',(0.006099996406226,0.002349998652335,-0.001));
#755=CARTESIAN_POINT('',(0.006099996406226,-0.002349998652335,-0.001));
#756=CARTESIAN_POINT('',(2.87791832758182E-19,-0.002349998652335,-0.001));
#757=CARTESIAN_POINT('',(-0.006099996406226,-0.002349998652335,-0.001));
#758=CARTESIAN_POINT('',(-0.006099996406226,-7.47034107369288E-19,-0.001));
#759=CARTESIAN_POINT('',(-0.006099996406226,0.002349998652335,-0.001));
#760=CARTESIAN_POINT('',(-2.87791832758182E-19,0.002349998652335,-0.001));
#761=CARTESIAN_POINT('',(0.,0.,0.));
#762=CARTESIAN_POINT('',(8.67361737988404E-19,-0.002349998652335,0.));
#763=CARTESIAN_POINT('',(0.006099996406226,-0.002349998652335,0.));
#764=CARTESIAN_POINT('',(-0.006099996406226,-0.002349998652335,0.));
#765=CARTESIAN_POINT('',(0.006099996406226,1.3010426069826E-18,0.));
#766=CARTESIAN_POINT('',(0.006099996406226,0.002349998652335,0.));
#767=CARTESIAN_POINT('',(-8.67361737988404E-19,0.002349998652335,0.));
#768=CARTESIAN_POINT('',(-0.006099996406226,0.002349998652335,0.));
#769=CARTESIAN_POINT('',(-0.006099996406226,-4.33680868994202E-19,0.));
#770=CARTESIAN_POINT('',(0.006099996406226,5.94078495441797E-19,-0.001));
#771=CARTESIAN_POINT('',(0.006099996406226,-0.002349998652335,-0.001));
#772=CARTESIAN_POINT('',(0.006099996406226,-0.002349998652335,0.015));
#773=CARTESIAN_POINT('',(0.006099996406226,5.94078495441797E-19,0.015));
#774=CARTESIAN_POINT('',(0.006099996406226,0.002349998652335,0.015));
#775=CARTESIAN_POINT('',(0.006099996406226,0.002349998652335,-0.001));
#776=CARTESIAN_POINT('',(0.007099996406226,7.16543175356497E-19,0.015));
#777=CARTESIAN_POINT('',(2.29291662624797E-19,-0.002349998652335,0.015));
#778=CARTESIAN_POINT('',(-0.006099996406226,-0.002349998652335,0.015));
#779=CARTESIAN_POINT('',(-0.006099996406226,-5.94078495441797E-19,0.015));
#780=CARTESIAN_POINT('',(-0.006099996406226,0.002349998652335,0.015));
#781=CARTESIAN_POINT('',(-2.31372280750709E-19,0.002349998652335,0.015));
#782=CARTESIAN_POINT('',(-0.007099996406226,-7.16543175356497E-19,0.015));
#783=CARTESIAN_POINT('',(-0.007099996406226,-0.003349998652335,0.015));
#784=CARTESIAN_POINT('',(-0.007099996406226,0.003349998652335,0.015));
#785=CARTESIAN_POINT('',(3.71482195245951E-19,-0.003349998652335,0.015));
#786=CARTESIAN_POINT('',(0.007099996406226,-0.003349998652335,0.015));
#787=CARTESIAN_POINT('',(0.007099996406226,7.16543175356497E-19,0.015));
#788=CARTESIAN_POINT('',(0.007099996406226,0.003349998652335,0.015));
#789=CARTESIAN_POINT('',(-3.53836960665409E-19,0.003349998652335,0.015));
#790=CARTESIAN_POINT('',(0.007099996406226,7.16543175356497E-19,-0.001));
#791=CARTESIAN_POINT('',(0.007099996406226,-0.003349998652335,-0.001));
#792=CARTESIAN_POINT('',(0.007099996406226,-0.003349998652335,0.));
#793=CARTESIAN_POINT('',(0.007099996406226,7.16543175356497E-19,0.));
#794=CARTESIAN_POINT('',(0.007099996406226,0.003349998652335,0.));
#795=CARTESIAN_POINT('',(0.007099996406226,0.003349998652335,-0.001));
#796=CARTESIAN_POINT('',(-2.31372280750709E-19,0.002349998652335,-0.001));
#797=CARTESIAN_POINT('',(-0.006099996406226,0.002349998652335,-0.001));
#798=CARTESIAN_POINT('',(-3.53836960665409E-19,0.003349998652335,-0.001));
#799=CARTESIAN_POINT('',(-0.0025,0.003349998652335,0.008125));
#800=CARTESIAN_POINT('',(-0.00175,0.003349998652335,0.008125));
#801=CARTESIAN_POINT('',(-0.00254289321881345,0.003349998652335,0.008125));
#802=CARTESIAN_POINT('',(-0.00175,0.003349998652335,0.007625));
#803=CARTESIAN_POINT('',(-0.00125,0.003349998652335,0.007625));
#804=CARTESIAN_POINT('',(-0.00125,0.003349998652335,0.005125));
#805=CARTESIAN_POINT('',(-0.00125,0.003349998652335,0.002625));
#806=CARTESIAN_POINT('',(-0.00075,0.003349998652335,0.002625));
#807=CARTESIAN_POINT('',(-0.00075,0.003349998652335,0.002125));
#808=CARTESIAN_POINT('',(-4.33680868994202E-19,0.003349998652335,0.002125));
#809=CARTESIAN_POINT('',(0.00075,0.003349998652335,0.002125));
#810=CARTESIAN_POINT('',(0.00075,0.003349998652335,0.002625));
#811=CARTESIAN_POINT('',(0.00125,0.003349998652335,0.002625));
#812=CARTESIAN_POINT('',(0.00125,0.003349998652335,0.005125));
#813=CARTESIAN_POINT('',(0.00125,0.003349998652335,0.007625));
#814=CARTESIAN_POINT('',(0.00175,0.003349998652335,0.007625));
#815=CARTESIAN_POINT('',(0.00175,0.003349998652335,0.008125));
#816=CARTESIAN_POINT('',(0.0025,0.003349998652335,0.008125));
#817=CARTESIAN_POINT('',(0.00254289321881345,0.003349998652335,0.008125));
#818=CARTESIAN_POINT('',(0.00254289321881345,0.003349998652335,0.008625));
#819=CARTESIAN_POINT('',(0.00289644660940673,0.003349998652335,0.00897855339059327));
#820=CARTESIAN_POINT('',(0.001875,0.003349998652335,0.01));
#821=CARTESIAN_POINT('',(0.000353553390593273,0.003349998652335,0.0115214466094067));
#822=CARTESIAN_POINT('',(-9.28594077945753E-19,0.003349998652335,0.0111678932188134));
#823=CARTESIAN_POINT('',(-0.000353553390593275,0.003349998652335,0.0115214466094067));
#824=CARTESIAN_POINT('',(-0.001875,0.003349998652335,0.01));
#825=CARTESIAN_POINT('',(-0.00289644660940673,0.003349998652335,0.00897855339059328));
#826=CARTESIAN_POINT('',(-0.00254289321881345,0.003349998652335,0.008625));
#827=CARTESIAN_POINT('',(-3.53836960665409E-19,0.003349998652335,0.));
#828=CARTESIAN_POINT('',(-0.007099996406226,0.003349998652335,0.));
#829=CARTESIAN_POINT('',(-0.007099996406226,0.003349998652335,-0.001));
#830=CARTESIAN_POINT('',(-0.007099996406226,-7.16543175356497E-19,-0.001));
#831=CARTESIAN_POINT('',(-0.007099996406226,-7.16543175356497E-19,0.));
#832=CARTESIAN_POINT('',(-0.007099996406226,-0.003349998652335,0.));
#833=CARTESIAN_POINT('',(-0.007099996406226,-0.003349998652335,-0.001));
#834=CARTESIAN_POINT('',(-0.006099996406226,-5.94078495441797E-19,-0.001));
#835=CARTESIAN_POINT('',(-0.006099996406226,-0.002349998652335,-0.001));
#836=CARTESIAN_POINT('',(3.71482195245951E-19,-0.003349998652335,-0.001));
#837=CARTESIAN_POINT('',(3.71482195245951E-19,-0.003349998652335,0.));
#838=CARTESIAN_POINT('',(2.29291662624797E-19,-0.002349998652335,-0.001));
#839=CARTESIAN_POINT('',(-0.00125,0.002849998652335,0.005125));
#840=CARTESIAN_POINT('',(-0.00125,0.002849998652335,0.007625));
#841=CARTESIAN_POINT('',(-0.00125,0.002849998652335,0.007625));
#842=CARTESIAN_POINT('',(-0.00125,0.002849998652335,0.005125));
#843=CARTESIAN_POINT('',(-0.00125,0.002849998652335,0.002625));
#844=CARTESIAN_POINT('',(-0.00125,0.002849998652335,0.002625));
#845=CARTESIAN_POINT('',(-0.0025,0.002849998652335,0.008125));
#846=CARTESIAN_POINT('',(-0.00254289321881345,0.002849998652335,0.008125));
#847=CARTESIAN_POINT('',(-0.00254289321881345,0.002849998652335,0.008125));
#848=CARTESIAN_POINT('',(-0.0025,0.002849998652335,0.008125));
#849=CARTESIAN_POINT('',(-0.00175,0.002849998652335,0.008125));
#850=CARTESIAN_POINT('',(-0.00175,0.002849998652335,0.008125));
#851=CARTESIAN_POINT('',(-0.001875,0.002849998652335,0.01));
#852=CARTESIAN_POINT('',(-0.001875,0.002849998652335,0.01));
#853=CARTESIAN_POINT('',(-0.00289644660940673,0.002849998652335,0.00897855339059328));
#854=CARTESIAN_POINT('',(-0.000353553390593275,0.002849998652335,0.0115214466094067));
#855=CARTESIAN_POINT('',(-0.00289644660940673,0.003349998652335,0.00897855339059328));
#856=CARTESIAN_POINT('',(-0.000353553390593275,0.002849998652335,0.0115214466094067));
#857=CARTESIAN_POINT('',(0.001875,0.002849998652335,0.01));
#858=CARTESIAN_POINT('',(0.00289644660940673,0.002849998652335,0.00897855339059327));
#859=CARTESIAN_POINT('',(0.00289644660940673,0.002849998652335,0.00897855339059327));
#860=CARTESIAN_POINT('',(0.001875,0.002849998652335,0.01));
#861=CARTESIAN_POINT('',(0.000353553390593273,0.002849998652335,0.0115214466094067));
#862=CARTESIAN_POINT('',(0.000353553390593273,0.003349998652335,0.0115214466094067));
#863=CARTESIAN_POINT('',(0.0025,0.002849998652335,0.008125));
#864=CARTESIAN_POINT('',(0.00175,0.002849998652335,0.008125));
#865=CARTESIAN_POINT('',(0.00175,0.002849998652335,0.008125));
#866=CARTESIAN_POINT('',(0.0025,0.002849998652335,0.008125));
#867=CARTESIAN_POINT('',(0.00254289321881345,0.002849998652335,0.008125));
#868=CARTESIAN_POINT('',(0.00254289321881345,0.002849998652335,0.008125));
#869=CARTESIAN_POINT('',(0.00125,0.002849998652335,0.005125));
#870=CARTESIAN_POINT('',(0.00125,0.002849998652335,0.005125));
#871=CARTESIAN_POINT('',(0.00125,0.002849998652335,0.002625));
#872=CARTESIAN_POINT('',(0.00125,0.002849998652335,0.007625));
#873=CARTESIAN_POINT('',(0.00125,0.002849998652335,0.007625));
#874=CARTESIAN_POINT('',(0.00125,0.002849998652335,0.002625));
#875=CARTESIAN_POINT('',(-3.72448529036852E-19,0.002849998652335,0.002125));
#876=CARTESIAN_POINT('',(-0.00075,0.002849998652335,0.002125));
#877=CARTESIAN_POINT('',(-0.00075,0.002849998652335,0.002125));
#878=CARTESIAN_POINT('',(-3.72448529036852E-19,0.002849998652335,0.002125));
#879=CARTESIAN_POINT('',(0.00075,0.002849998652335,0.002125));
#880=CARTESIAN_POINT('',(0.00075,0.003349998652335,0.002125));
#881=CARTESIAN_POINT('',(-3.49024172715532E-19,0.002849998652335,0.007));
#882=CARTESIAN_POINT('',(-0.00254289321881345,0.002849998652335,0.008625));
#883=CARTESIAN_POINT('',(-8.67361737988403E-19,0.002849998652335,0.0111678932188134));
#884=CARTESIAN_POINT('',(0.00254289321881345,0.002849998652335,0.008625));
#885=CARTESIAN_POINT('',(0.00175,0.002849998652335,0.007625));
#886=CARTESIAN_POINT('',(0.00075,0.002849998652335,0.002625));
#887=CARTESIAN_POINT('',(-0.00075,0.002849998652335,0.002625));
#888=CARTESIAN_POINT('',(-0.00175,0.002849998652335,0.007625));
#889=CARTESIAN_POINT('',(-2.87791832758182E-19,0.002349998652335,0.));
#890=CARTESIAN_POINT('',(-0.006099996406226,0.002349998652335,0.));
#891=CARTESIAN_POINT('',(0.006099996406226,0.002349998652335,0.));
#892=CARTESIAN_POINT('',(0.006099996406226,7.47034107369288E-19,0.));
#893=CARTESIAN_POINT('',(0.006099996406226,-0.002349998652335,0.));
#894=CARTESIAN_POINT('',(-0.006099996406226,-7.47034107369288E-19,0.));
#895=CARTESIAN_POINT('',(-0.006099996406226,-0.002349998652335,0.));
#896=CARTESIAN_POINT('',(2.87791832758182E-19,-0.002349998652335,0.));
#897=CARTESIAN_POINT('',(-0.00254289321881345,0.002849998652335,0.008625));
#898=CARTESIAN_POINT('',(-0.00175,0.002849998652335,0.007625));
#899=CARTESIAN_POINT('',(-0.00075,0.002849998652335,0.002625));
#900=CARTESIAN_POINT('',(0.00175,0.002849998652335,0.007625));
#901=CARTESIAN_POINT('',(0.00075,0.002849998652335,0.002625));
#902=CARTESIAN_POINT('',(0.00254289321881345,0.002849998652335,0.008625));
#903=CARTESIAN_POINT('',(-8.67361737988404E-19,0.002849998652335,0.0111678932188134));
#904=MECHANICAL_DESIGN_GEOMETRIC_PRESENTATION_REPRESENTATION('',(#537),#905);
#905=(
GEOMETRIC_REPRESENTATION_CONTEXT(3)
GLOBAL_UNCERTAINTY_ASSIGNED_CONTEXT((#906))
GLOBAL_UNIT_ASSIGNED_CONTEXT((#909,#908,#907))
REPRESENTATION_CONTEXT('Part 1','TOP_LEVEL_ASSEMBLY_PART')
);
#906=UNCERTAINTY_MEASURE_WITH_UNIT(LENGTH_MEASURE(1.E-08),#909,'DISTANCE_ACCURACY_VALUE','Maximum Tolerance applied to model');
#907=(
NAMED_UNIT(*)
SI_UNIT($,.STERADIAN.)
SOLID_ANGLE_UNIT()
);
#908=(
NAMED_UNIT(*)
PLANE_ANGLE_UNIT()
SI_UNIT($,.RADIAN.)
);
#909=(
LENGTH_UNIT()
NAMED_UNIT(*)
SI_UNIT($,.METRE.)
);
#910=PRODUCT_DEFINITION_SHAPE('','',#911);
#911=PRODUCT_DEFINITION('','',#913,#912);
#912=PRODUCT_DEFINITION_CONTEXT('',#919,'design');
#913=PRODUCT_DEFINITION_FORMATION_WITH_SPECIFIED_SOURCE('','',#915,.NOT_KNOWN.);
#914=PRODUCT_RELATED_PRODUCT_CATEGORY('','',(#915));
#915=PRODUCT('Part 1','Part 1','Part 1',(#917));
#916=PRODUCT_CATEGORY('','');
#917=PRODUCT_CONTEXT('',#919,'mechanical');
#918=APPLICATION_PROTOCOL_DEFINITION('international standard','ap242_managed_model_based_3d_engineering',2020,#919);
#919=APPLICATION_CONTEXT('managed model based 3d engineering');
#920=SHAPE_ASPECT('DISTANCE.F9Tb1MaPQjDIbaw_2',$,#910,.T.);
#921=GEOMETRIC_ITEM_SPECIFIC_USAGE('','',#920,#11,#508);
#922=SHAPE_ASPECT('DISTANCE.F9Tb1MaPQjDIbaw_2',$,#910,.T.);
#923=GEOMETRIC_ITEM_SPECIFIC_USAGE('','',#922,#11,#510);
#924=DIMENSIONAL_LOCATION('linear distance','DISTANCE.F9Tb1MaPQjDIbaw_2',#920,#922);
#926=(
LENGTH_UNIT()
NAMED_UNIT(*)
SI_UNIT(.MILLI.,.METRE.)
);
#927=PRECISION_QUALIFIER(3);
#925=(
LENGTH_MEASURE_WITH_UNIT()
MEASURE_REPRESENTATION_ITEM()
MEASURE_WITH_UNIT(POSITIVE_LENGTH_MEASURE(1.),#926)
QUALIFIED_REPRESENTATION_ITEM((#927))
REPRESENTATION_ITEM('nominal value')
);
#928=SHAPE_DIMENSION_REPRESENTATION('',(#925),#905);
#929=DIMENSIONAL_CHARACTERISTIC_REPRESENTATION(#924,#928);
#930=PRESENTATION_STYLE_ASSIGNMENT((NULL_STYLE(.NULL.)));
#931=CARTESIAN_POINT('',(0.006599996406226,6.55310835399147E-19,-0.00375));
#932=DIRECTION('',(-1.224646799147E-16,1.,0.));
#933=DIRECTION('',(1.,1.224646799147E-16,0.));
#934=AXIS2_PLACEMENT_3D('',#931,#932,#933);
#935=PLANE('',#934);
#936=ANNOTATION_PLANE('',(#930),#935,(#963));
#937=CARTESIAN_POINT('',(0.,0.,0.));
#938=DIRECTION('',(0.,0.,1.));
#939=DIRECTION('',(1.,0.,0.));
#940=AXIS2_PLACEMENT_3D('',#937,#938,#939);
#941=CARTESIAN_POINT('',(0.,0.,0.));
#942=DIRECTION('',(0.,0.,1.));
#943=DIRECTION('',(1.,0.,0.));
#944=AXIS2_PLACEMENT_3D('',#941,#942,#943);
#945=SHAPE_REPRESENTATION('',(#944,#545),#905);
#946=REPRESENTATION_MAP(#940,#945);
#947=MAPPED_ITEM('',#946,#940);
#948=PRESENTATION_STYLE_ASSIGNMENT((NULL_STYLE(.NULL.)));
#949=STYLED_ITEM('',(#948),#947);
#950=DRAUGHTING_MODEL('',(#936,#940,#947,#949),#905);
#951=DRAUGHTING_PRE_DEFINED_CURVE_FONT('continuous');
#952=COLOUR_RGB('',0.,0.,0.);
#953=CURVE_STYLE('',#951,POSITIVE_LENGTH_MEASURE(0.02),#952);
#954=PRESENTATION_STYLE_ASSIGNMENT((#953));
#955=COORDINATES_LIST('coordinates',72,((0.0087833,0.,-0.0046444),(0.0061000,0.,-0.0037500),(0.0087833,0.,-0.0028556),(0.0044167,0.,-0.0028556),(0.0071000,0.,-0.0037500),(0.0044167,0.,-0.0046444),(0.0068947,0.,-0.0057794),(0.0067773,0.,-0.0057328),(0.0061698,0.,-0.0052311),(0.0068947,0.,-0.0057794),(0.0061698,0.,-0.0052311),(0.0061121,0.,-0.0051634),(0.0068947,0.,-0.0057794),(0.0061121,0.,-0.0051634),(0.0060872,0.,-0.0050914),(0.0068947,0.,-0.0057794),(0.0060872,0.,-0.0050914),(0.0060872,0.,-0.0050576),(0.0068947,0.,-0.0057794),(0.0060872,0.,-0.0050576),(0.0061211,0.,-0.0049295),(0.0068947,0.,-0.0057794),(0.0061211,0.,-0.0049295),(0.0061804,0.,-0.0048726),(0.0068947,0.,-0.0057794),(0.0061804,0.,-0.0048726),(0.0062608,0.,-0.0048438),(0.0068947,0.,-0.0057794),(0.0062608,0.,-0.0048438),(0.0063021,0.,-0.0048417),(0.0068947,0.,-0.0057794),(0.0063021,0.,-0.0048417),(0.0064174,0.,-0.0048787),(0.0068947,0.,-0.0057794),(0.0064174,0.,-0.0048787),(0.0066884,0.,-0.0051179),(0.0068947,0.,-0.0057794),(0.0066884,0.,-0.0051179),(0.0066884,0.,-0.0019323),(0.0068947,0.,-0.0057794),(0.0066884,0.,-0.0019323),(0.0067037,0.,-0.0018503),(0.0068947,0.,-0.0057794),(0.0067037,0.,-0.0018503),(0.0067498,0.,-0.0017820),(0.0068947,0.,-0.0057794),(0.0067498,0.,-0.0017820),(0.0068180,0.,-0.0017360),(0.0068947,0.,-0.0057794),(0.0068180,0.,-0.0017360),(0.0069000,0.,-0.0017206),(0.0068947,0.,-0.0057794),(0.0069000,0.,-0.0017206),(0.0069828,0.,-0.0017360),(0.0068947,0.,-0.0057794),(0.0069828,0.,-0.0017360),(0.0070514,0.,-0.0017820),(0.0068947,0.,-0.0057794),(0.0070514,0.,-0.0017820),(0.0070974,0.,-0.0018503),(0.0068947,0.,-0.0057794),(0.0070974,0.,-0.0018503),(0.0071128,0.,-0.0019323),(0.0068947,0.,-0.0057794),(0.0071128,0.,-0.0019323),(0.0071128,0.,-0.0055592),(0.0068947,0.,-0.0057794),(0.0071128,0.,-0.0055592),(0.0070844,0.,-0.0056725),(0.0068947,0.,-0.0057794),(0.0070844,0.,-0.0056725),(0.0069995,0.,-0.0057476)));
#956=COMPLEX_TRIANGULATED_SURFACE_SET('surface set',#955,72,(),(),(),((1,2,3),(4,5,6),(7,8,9),(10,11,12),(13,14,15),(16,17,18),(19,20,21),(22,23,24),(25,26,27),(28,29,30),(31,32,33),(34,35,36),(37,38,39),(40,41,42),(43,44,45),(46,47,48),(49,50,51),(52,53,54),(55,56,57),(58,59,60),(61,62,63),(64,65,66),(67,68,69),(70,71,72)));
#957=TESSELLATED_GEOMETRIC_SET('linear dimension',(#956));
#958=COORDINATES_LIST('coordinates',8,((0.0061000,0.,0.),(0.0061000,0.,-0.0037500),(0.0071000,0.,0.),(0.0071000,0.,-0.0037500),(0.0050872,0.,-0.0037500),(0.0050872,0.,-0.0037500),(0.0081128,0.,-0.0037500),(0.0081128,0.,-0.0037500)));
#959=TESSELLATED_CURVE_SET('curve set',#958,((1,2),(3,4),(5,6),(7,8)));
#960=TESSELLATED_GEOMETRIC_SET('linear dimension',(#959));
#961=TESSELLATED_ANNOTATION_OCCURRENCE('linear dimension',(#954),#957);
#962=TESSELLATED_ANNOTATION_OCCURRENCE('linear dimension',(#954),#960);
#963=DRAUGHTING_CALLOUT('linear dimension',(#961,#962));
#964=DRAUGHTING_MODEL_ITEM_ASSOCIATION('','',#920,#950,#963);
#965=DRAUGHTING_MODEL_ITEM_ASSOCIATION('','',#922,#950,#963);
#966=DRAUGHTING_MODEL_ITEM_ASSOCIATION('','',#924,#950,#963);
ENDSEC;
END-ISO-10303-21;
